<?xml version="1.0" encoding="UTF-8" standalone="no"?>
<svg
   xmlns:dc="http://purl.org/dc/elements/1.1/"
   xmlns:cc="http://creativecommons.org/ns#"
   xmlns:rdf="http://www.w3.org/1999/02/22-rdf-syntax-ns#"
   xmlns:svg="http://www.w3.org/2000/svg"
   xmlns="http://www.w3.org/2000/svg"
   xmlns:sodipodi="http://sodipodi.sourceforge.net/DTD/sodipodi-0.dtd"
   xmlns:inkscape="http://www.inkscape.org/namespaces/inkscape"
   viewBox="0 0 238.11 187.09"
   id="svg2"
   version="1.1"
   inkscape:version="0.91 r13725"
   sodipodi:docname="pebble-system.svg">
  <metadata
     id="metadata156">
    <rdf:RDF>
      <cc:Work
         rdf:about="">
        <dc:format>image/svg+xml</dc:format>
        <dc:type
           rdf:resource="http://purl.org/dc/dcmitype/StillImage" />
      </cc:Work>
    </rdf:RDF>
  </metadata>
  <defs
     id="defs154" />
  <sodipodi:namedview
     pagecolor="#ffffff"
     bordercolor="#666666"
     borderopacity="1"
     objecttolerance="10"
     gridtolerance="10"
     guidetolerance="10"
     inkscape:pageopacity="0"
     inkscape:pageshadow="2"
     inkscape:window-width="1495"
     inkscape:window-height="1037"
     id="namedview152"
     showgrid="false"
     inkscape:zoom="4.3903503"
     inkscape:cx="119.055"
     inkscape:cy="93.544998"
     inkscape:window-x="0"
     inkscape:window-y="0"
     inkscape:window-maximized="0"
     inkscape:current-layer="svg2" />
  <path
     d="m 200.16,37.35 2.968,0 0,11.39 -2.967,0 z"
     id="path4"
     inkscape:connector-curvature="0"
     style="fill:#83bbe6" />
  <path
     d="m 215.982,37.35 2.966,0 0,11.39 -2.966,0 z m -112.018,-24.427 32.575,0 0,61.904 -32.576,0 z"
     id="path6"
     inkscape:connector-curvature="0"
     style="fill:#4278a7" />
  <path
     d="m 99.545,16.487 37.91,0 0,49.943 -37.91,0 z"
     id="path8"
     inkscape:connector-curvature="0"
     style="fill:#ffffff" />
  <g
     id="g10"
     transform="translate(0,-32)"
     style="fill:#356282">
    <path
       d="m 18.916,131.155 -2.388,0 0,-4.283 2.388,0 0,0.442 -1.89,0 0,1.38 1.774,0 0,0.44 -1.774,0 0,1.575 1.89,0 0,0.445 z m 1.649,-1.645 -1.116,-1.566 0.553,0 0.847,1.23 0.844,-1.23 0.548,0 -1.116,1.567 1.175,1.645 -0.55,0 -0.9,-1.3 -0.907,1.3 -0.55,0 1.172,-1.644 z m 3.727,1.704 c -0.475,0 -0.85,-0.145 -1.124,-0.434 -0.274,-0.289 -0.412,-0.69 -0.412,-1.204 0,-0.518 0.127,-0.93 0.382,-1.233 0.255,-0.303 0.597,-0.457 1.027,-0.457 0.402,0 0.72,0.133 0.955,0.396 0.234,0.266 0.352,0.614 0.352,1.048 l 0,0.308 -2.212,0 c 0.01,0.377 0.105,0.663 0.286,0.858 0.181,0.195 0.435,0.293 0.763,0.293 0.345,0 0.687,-0.073 1.024,-0.218 l 0,0.434 c -0.172,0.074 -0.334,0.128 -0.488,0.16 -0.152,0.032 -0.337,0.048 -0.554,0.048 z m -0.132,-2.92 c -0.258,0 -0.463,0.083 -0.617,0.25 -0.154,0.167 -0.244,0.4 -0.27,0.698 l 1.678,0 c 0,-0.307 -0.067,-0.54 -0.204,-0.704 -0.137,-0.164 -0.332,-0.245 -0.586,-0.245 z m 3.425,2.92 c -0.465,0 -0.825,-0.143 -1.08,-0.43 -0.255,-0.285 -0.382,-0.69 -0.382,-1.214 0,-0.537 0.13,-0.952 0.388,-1.245 0.258,-0.293 0.628,-0.44 1.107,-0.44 0.154,0 0.31,0.018 0.463,0.05 0.153,0.032 0.275,0.073 0.363,0.118 l -0.15,0.413 c -0.106,-0.043 -0.224,-0.078 -0.35,-0.107 -0.128,-0.028 -0.24,-0.043 -0.338,-0.043 -0.652,0 -0.98,0.416 -0.98,1.248 0,0.395 0.08,0.697 0.24,0.908 0.16,0.211 0.395,0.316 0.708,0.316 0.268,0 0.542,-0.06 0.823,-0.174 l 0,0.43 c -0.214,0.112 -0.485,0.168 -0.81,0.168 z m 2.03,-3.27 0,2.083 c 0,0.262 0.06,0.457 0.18,0.586 0.12,0.129 0.305,0.193 0.56,0.193 0.335,0 0.58,-0.092 0.736,-0.275 0.156,-0.183 0.234,-0.482 0.234,-0.898 l 0,-1.687 0.486,0 0,3.21 -0.4,0 -0.07,-0.43 -0.027,0 c -0.1,0.158 -0.238,0.28 -0.415,0.363 -0.177,0.083 -0.378,0.126 -0.605,0.126 -0.39,0 -0.683,-0.093 -0.877,-0.278 -0.194,-0.185 -0.292,-0.482 -0.292,-0.89 l 0,-2.102 0.49,0 z m 4.263,2.868 c 0.086,0 0.17,-0.006 0.25,-0.02 0.08,-0.014 0.143,-0.025 0.19,-0.04 l 0,0.373 c -0.054,0.025 -0.13,0.046 -0.234,0.062 -0.104,0.016 -0.195,0.025 -0.277,0.025 -0.62,0 -0.932,-0.327 -0.932,-0.98 l 0,-1.91 -0.46,0 0,-0.235 0.46,-0.202 0.205,-0.686 0.28,0 0,0.743 0.933,0 0,0.378 -0.932,0 0,1.89 c 0,0.194 0.047,0.343 0.14,0.446 0.093,0.103 0.218,0.156 0.378,0.156 z m 1.04,-3.738 c 0,-0.11 0.027,-0.192 0.082,-0.245 0.055,-0.052 0.123,-0.078 0.205,-0.078 0.078,0 0.146,0.026 0.202,0.08 0.056,0.054 0.085,0.133 0.085,0.242 0,0.109 -0.028,0.19 -0.085,0.245 -0.057,0.055 -0.124,0.08 -0.202,0.08 -0.082,0 -0.15,-0.027 -0.205,-0.08 -0.055,-0.053 -0.082,-0.137 -0.082,-0.246 z m 0.527,4.08 -0.486,0 0,-3.21 0.485,0 0,3.21 z m 3.803,-1.607 c 0,0.523 -0.132,0.933 -0.396,1.226 -0.264,0.295 -0.628,0.44 -1.093,0.44 -0.288,0 -0.543,-0.066 -0.766,-0.2 -0.223,-0.134 -0.395,-0.33 -0.516,-0.58 -0.121,-0.25 -0.182,-0.548 -0.182,-0.886 0,-0.523 0.13,-0.93 0.393,-1.224 0.26,-0.29 0.624,-0.437 1.09,-0.437 0.448,0 0.805,0.15 1.07,0.448 0.265,0.298 0.398,0.703 0.398,1.213 z m -2.446,0 c 0,0.41 0.082,0.723 0.246,0.938 0.164,0.215 0.405,0.322 0.724,0.322 0.319,0 0.56,-0.106 0.725,-0.32 0.165,-0.214 0.248,-0.527 0.248,-0.94 0,-0.407 -0.083,-0.717 -0.248,-0.93 -0.165,-0.21 -0.41,-0.317 -0.73,-0.317 -0.32,0 -0.56,0.104 -0.722,0.313 -0.162,0.209 -0.243,0.52 -0.243,0.934 z m 5.496,1.608 0,-2.077 c 0,-0.262 -0.06,-0.457 -0.18,-0.586 -0.12,-0.129 -0.305,-0.193 -0.56,-0.193 -0.335,0 -0.58,0.09 -0.737,0.27 -0.157,0.18 -0.233,0.482 -0.233,0.9 l 0,1.685 -0.488,0 0,-3.21 0.397,0 0.08,0.438 0.022,0 c 0.1,-0.158 0.238,-0.28 0.418,-0.367 0.18,-0.087 0.38,-0.13 0.6,-0.13 0.388,0 0.68,0.093 0.874,0.278 0.195,0.188 0.293,0.485 0.293,0.896 l 0,2.095 -0.487,0 z m -27.741,8 -2.387,0 0,-4.283 2.387,0 0,0.442 -1.89,0 0,1.38 1.775,0 0,0.44 -1.775,0 0,1.575 1.89,0 0,0.445 z m 3.073,0 0,-2.077 c 0,-0.262 -0.06,-0.457 -0.18,-0.586 -0.12,-0.129 -0.305,-0.193 -0.56,-0.193 -0.335,0 -0.58,0.09 -0.737,0.27 -0.157,0.18 -0.234,0.482 -0.234,0.9 l 0,1.685 -0.487,0 0,-3.21 0.396,0 0.078,0.438 0.023,0 c 0.1,-0.158 0.24,-0.28 0.42,-0.367 0.18,-0.087 0.38,-0.13 0.6,-0.13 0.388,0 0.68,0.093 0.874,0.278 0.195,0.188 0.293,0.485 0.293,0.896 l 0,2.095 -0.487,0 z m 2.188,0 -1.22,-3.21 0.522,0 0.69,1.903 c 0.157,0.445 0.25,0.734 0.276,0.867 l 0.023,0 c 0.02,-0.104 0.088,-0.318 0.203,-0.643 0.114,-0.326 0.37,-1.035 0.77,-2.13 l 0.52,0 -1.22,3.212 -0.565,0 z m 2.262,-4.081 c 0,-0.11 0.027,-0.192 0.082,-0.245 0.055,-0.052 0.123,-0.078 0.205,-0.078 0.078,0 0.146,0.026 0.202,0.08 0.056,0.054 0.084,0.133 0.084,0.242 0,0.109 -0.028,0.19 -0.085,0.245 -0.057,0.055 -0.125,0.08 -0.203,0.08 -0.082,0 -0.15,-0.027 -0.205,-0.08 -0.055,-0.053 -0.082,-0.137 -0.082,-0.246 z m 0.527,4.08 -0.486,0 0,-3.21 0.487,0 0,3.21 z m 2.497,-3.269 c 0.143,0 0.27,0.012 0.384,0.035 l -0.067,0.45 c -0.132,-0.028 -0.25,-0.043 -0.35,-0.043 -0.26,0 -0.483,0.105 -0.668,0.316 -0.185,0.211 -0.277,0.474 -0.277,0.788 l 0,1.724 -0.486,0 0,-3.21 0.4,0 0.056,0.594 0.023,0 c 0.118,-0.21 0.262,-0.37 0.43,-0.483 0.168,-0.113 0.352,-0.17 0.554,-0.17 z m 3.756,1.662 c 0,0.523 -0.133,0.933 -0.397,1.226 -0.264,0.295 -0.628,0.44 -1.093,0.44 -0.287,0 -0.542,-0.066 -0.765,-0.2 -0.223,-0.134 -0.395,-0.33 -0.516,-0.58 -0.121,-0.25 -0.183,-0.548 -0.183,-0.886 0,-0.523 0.13,-0.93 0.393,-1.224 0.262,-0.29 0.625,-0.438 1.09,-0.438 0.45,0 0.806,0.15 1.07,0.448 0.264,0.298 0.4,0.704 0.4,1.214 z m -2.447,0 c 0,0.41 0.082,0.723 0.246,0.938 0.164,0.215 0.404,0.322 0.723,0.322 0.319,0 0.56,-0.106 0.725,-0.32 0.165,-0.214 0.248,-0.527 0.248,-0.94 0,-0.407 -0.083,-0.717 -0.248,-0.93 -0.165,-0.21 -0.41,-0.317 -0.73,-0.317 -0.32,0 -0.56,0.104 -0.722,0.313 -0.162,0.209 -0.243,0.52 -0.243,0.934 z m 5.497,1.608 0,-2.077 c 0,-0.262 -0.06,-0.457 -0.18,-0.586 -0.12,-0.129 -0.306,-0.193 -0.56,-0.193 -0.336,0 -0.582,0.09 -0.738,0.27 -0.156,0.18 -0.234,0.482 -0.234,0.9 l 0,1.685 -0.486,0 0,-3.21 0.396,0 0.08,0.438 0.022,0 c 0.1,-0.158 0.24,-0.28 0.42,-0.367 0.18,-0.087 0.38,-0.13 0.6,-0.13 0.387,0 0.678,0.093 0.873,0.278 0.195,0.188 0.293,0.485 0.293,0.896 l 0,2.095 -0.487,0 z m 5.577,0 0,-2.09 c 0,-0.255 -0.055,-0.446 -0.164,-0.574 -0.109,-0.128 -0.28,-0.19 -0.51,-0.19 -0.303,0 -0.526,0.086 -0.67,0.26 -0.144,0.174 -0.218,0.44 -0.218,0.803 l 0,1.793 -0.485,0 0,-2.09 c 0,-0.255 -0.055,-0.446 -0.164,-0.574 -0.109,-0.128 -0.28,-0.192 -0.513,-0.192 -0.305,0 -0.528,0.092 -0.67,0.274 -0.142,0.182 -0.21,0.48 -0.21,0.897 l 0,1.686 -0.487,0 0,-3.21 0.396,0 0.08,0.438 0.022,0 c 0.092,-0.156 0.22,-0.278 0.388,-0.366 0.168,-0.088 0.354,-0.132 0.56,-0.132 0.503,0 0.83,0.182 0.985,0.545 l 0.023,0 c 0.096,-0.167 0.234,-0.3 0.416,-0.397 0.182,-0.097 0.39,-0.146 0.62,-0.146 0.364,0 0.636,0.094 0.817,0.28 0.18,0.187 0.27,0.484 0.27,0.895 l 0,2.095 -0.486,0 z m 2.845,0.059 c -0.475,0 -0.85,-0.145 -1.124,-0.434 -0.274,-0.289 -0.412,-0.69 -0.412,-1.204 0,-0.518 0.127,-0.93 0.382,-1.233 0.255,-0.303 0.597,-0.457 1.027,-0.457 0.402,0 0.72,0.133 0.955,0.396 0.234,0.266 0.352,0.614 0.352,1.048 l 0,0.308 -2.212,0 c 0.01,0.377 0.105,0.663 0.286,0.858 0.181,0.195 0.435,0.293 0.763,0.293 0.345,0 0.687,-0.073 1.024,-0.218 l 0,0.434 c -0.172,0.074 -0.334,0.128 -0.488,0.16 -0.152,0.032 -0.337,0.048 -0.554,0.048 z m -0.132,-2.92 c -0.258,0 -0.463,0.083 -0.617,0.25 -0.154,0.167 -0.244,0.4 -0.27,0.698 l 1.678,0 c 0,-0.307 -0.067,-0.54 -0.204,-0.704 -0.137,-0.164 -0.332,-0.245 -0.586,-0.245 z m 4.34,2.861 0,-2.077 c 0,-0.262 -0.06,-0.457 -0.18,-0.586 -0.12,-0.129 -0.306,-0.193 -0.56,-0.193 -0.336,0 -0.582,0.09 -0.738,0.27 -0.156,0.18 -0.234,0.482 -0.234,0.9 l 0,1.685 -0.486,0 0,-3.21 0.396,0 0.08,0.438 0.022,0 c 0.1,-0.158 0.24,-0.28 0.42,-0.367 0.18,-0.087 0.38,-0.13 0.6,-0.13 0.387,0 0.678,0.093 0.873,0.278 0.195,0.188 0.293,0.485 0.293,0.896 l 0,2.095 -0.487,0 z m 2.522,-0.343 c 0.086,0 0.17,-0.006 0.25,-0.02 0.08,-0.014 0.143,-0.025 0.19,-0.04 l 0,0.373 c -0.054,0.025 -0.13,0.046 -0.234,0.062 -0.104,0.016 -0.195,0.025 -0.277,0.025 -0.62,0 -0.93,-0.327 -0.93,-0.98 l 0,-1.91 -0.46,0 0,-0.235 0.46,-0.202 0.205,-0.686 0.28,0 0,0.743 0.933,0 0,0.378 -0.932,0 0,1.89 c 0,0.194 0.046,0.343 0.138,0.446 0.092,0.103 0.217,0.156 0.378,0.156 z"
       id="path12"
       inkscape:connector-curvature="0" />
  </g>
  <g
     id="g24"
     transform="translate(0,-22)"
     style="fill:#4278a7">
    <path
       d="m 67.23,54.52 c 0,0.362 -0.123,0.64 -0.37,0.835 -0.246,0.194 -0.6,0.29 -1.058,0.29 l -0.42,0 0,1.405 -0.415,0 0,-3.57 0.925,0 c 0.892,0 1.338,0.348 1.338,1.04 z m -1.848,0.77 0.373,0 c 0.368,0 0.634,-0.06 0.8,-0.178 0.163,-0.12 0.245,-0.31 0.245,-0.57 0,-0.237 -0.077,-0.413 -0.23,-0.528 -0.156,-0.115 -0.397,-0.174 -0.724,-0.174 l -0.464,0 0,1.45 z m 3.664,1.81 c -0.396,0 -0.707,-0.12 -0.936,-0.362 -0.23,-0.24 -0.344,-0.575 -0.344,-1.004 0,-0.43 0.106,-0.773 0.32,-1.027 0.21,-0.254 0.496,-0.38 0.854,-0.38 0.335,0 0.6,0.11 0.796,0.33 0.196,0.22 0.293,0.51 0.293,0.872 l 0,0.256 -1.845,0 c 0.01,0.314 0.088,0.553 0.238,0.716 0.15,0.162 0.362,0.244 0.636,0.244 0.287,0 0.572,-0.06 0.853,-0.182 l 0,0.36 c -0.143,0.063 -0.278,0.107 -0.406,0.135 -0.126,0.026 -0.28,0.04 -0.46,0.04 z m -0.11,-2.434 c -0.214,0 -0.386,0.07 -0.513,0.21 -0.128,0.14 -0.203,0.333 -0.227,0.58 l 1.4,0 c 0,-0.255 -0.06,-0.45 -0.172,-0.587 -0.113,-0.137 -0.276,-0.204 -0.487,-0.204 z m 3.03,-0.336 c 0.352,0 0.625,0.12 0.82,0.36 0.195,0.24 0.29,0.58 0.29,1.02 0,0.44 -0.098,0.78 -0.294,1.024 -0.195,0.243 -0.468,0.365 -0.816,0.365 -0.174,0 -0.333,-0.033 -0.478,-0.098 -0.144,-0.064 -0.265,-0.163 -0.362,-0.296 l -0.03,0 -0.084,0.344 -0.29,0 0,-3.8 0.404,0 0,0.924 c 0,0.207 -0.006,0.393 -0.02,0.557 l 0.02,0 c 0.19,-0.265 0.47,-0.4 0.84,-0.4 z m -0.06,0.34 c -0.275,0 -0.475,0.08 -0.597,0.238 -0.123,0.16 -0.185,0.426 -0.185,0.803 0,0.376 0.062,0.646 0.188,0.808 0.125,0.162 0.326,0.242 0.603,0.242 0.25,0 0.435,-0.09 0.557,-0.27 0.122,-0.18 0.184,-0.443 0.184,-0.784 0,-0.348 -0.062,-0.607 -0.184,-0.778 -0.122,-0.171 -0.31,-0.258 -0.566,-0.258 z m 3.124,-0.34 c 0.352,0 0.624,0.12 0.82,0.36 0.193,0.24 0.29,0.58 0.29,1.02 0,0.44 -0.098,0.78 -0.294,1.024 -0.196,0.244 -0.47,0.365 -0.816,0.365 -0.175,0 -0.333,-0.033 -0.478,-0.098 -0.144,-0.064 -0.265,-0.163 -0.362,-0.296 l -0.03,0 -0.085,0.344 -0.29,0 0,-3.8 0.405,0 0,0.924 c 0,0.207 -0.007,0.393 -0.02,0.557 l 0.02,0 c 0.19,-0.265 0.47,-0.4 0.84,-0.4 z m -0.058,0.34 c -0.277,0 -0.477,0.08 -0.6,0.238 -0.12,0.16 -0.182,0.426 -0.182,0.803 0,0.376 0.062,0.646 0.188,0.808 0.126,0.162 0.326,0.242 0.604,0.242 0.25,0 0.435,-0.09 0.557,-0.27 0.122,-0.18 0.182,-0.443 0.182,-0.784 0,-0.348 -0.06,-0.607 -0.183,-0.778 -0.123,-0.171 -0.313,-0.258 -0.568,-0.258 z m 2.282,2.38 -0.405,0 0,-3.8 0.404,0 0,3.8 z m 1.99,0.05 c -0.396,0 -0.708,-0.12 -0.937,-0.362 -0.229,-0.242 -0.343,-0.575 -0.343,-1.004 0,-0.43 0.105,-0.773 0.318,-1.027 0.212,-0.254 0.498,-0.38 0.855,-0.38 0.336,0 0.6,0.11 0.796,0.33 0.196,0.22 0.293,0.51 0.293,0.872 l 0,0.256 -1.843,0 c 0.008,0.314 0.087,0.553 0.237,0.716 0.15,0.162 0.363,0.244 0.637,0.244 0.288,0 0.572,-0.06 0.854,-0.182 l 0,0.36 c -0.143,0.063 -0.278,0.107 -0.406,0.135 -0.125,0.026 -0.28,0.04 -0.46,0.04 z m -0.11,-2.434 c -0.215,0 -0.386,0.07 -0.514,0.21 -0.128,0.14 -0.203,0.333 -0.226,0.58 l 1.398,0 c 0,-0.255 -0.057,-0.45 -0.17,-0.587 -0.113,-0.137 -0.276,-0.204 -0.488,-0.204 z m 1.726,2.126 c 0,-0.11 0.024,-0.19 0.074,-0.248 0.05,-0.056 0.12,-0.084 0.214,-0.084 0.094,0 0.168,0.028 0.22,0.084 0.054,0.057 0.08,0.14 0.08,0.248 0,0.105 -0.026,0.188 -0.08,0.244 -0.054,0.056 -0.127,0.085 -0.22,0.085 -0.083,0 -0.152,-0.024 -0.206,-0.075 C 80.888,56.994 80.86,56.91 80.86,56.793 Z m 1.065,1.46 c -0.155,0 -0.28,-0.02 -0.376,-0.06 l 0,-0.33 c 0.11,0.03 0.222,0.048 0.33,0.048 0.128,0 0.22,-0.034 0.28,-0.104 0.06,-0.07 0.09,-0.175 0.09,-0.316 l 0,-3.115 0.404,0 0,3.086 c 0,0.528 -0.243,0.792 -0.73,0.792 z m 0.29,-4.602 c 0,-0.094 0.023,-0.16 0.068,-0.204 0.046,-0.043 0.103,-0.065 0.17,-0.065 0.066,0 0.122,0.023 0.17,0.067 0.047,0.044 0.07,0.11 0.07,0.203 0,0.09 -0.023,0.158 -0.07,0.203 -0.048,0.045 -0.104,0.067 -0.17,0.067 -0.067,0 -0.124,-0.022 -0.17,-0.067 -0.045,-0.045 -0.068,-0.112 -0.068,-0.203 z m 3.025,2.67 c 0,0.25 -0.093,0.44 -0.278,0.576 -0.186,0.136 -0.446,0.203 -0.78,0.203 -0.356,0 -0.633,-0.058 -0.83,-0.17 l 0,-0.376 c 0.127,0.065 0.266,0.117 0.412,0.154 0.147,0.037 0.29,0.057 0.427,0.057 0.212,0 0.375,-0.034 0.49,-0.102 0.112,-0.067 0.17,-0.17 0.17,-0.31 0,-0.103 -0.046,-0.192 -0.136,-0.267 -0.09,-0.074 -0.267,-0.162 -0.528,-0.263 -0.25,-0.093 -0.427,-0.174 -0.53,-0.243 -0.106,-0.07 -0.185,-0.147 -0.235,-0.235 -0.05,-0.088 -0.076,-0.192 -0.076,-0.315 0,-0.218 0.09,-0.39 0.267,-0.516 0.178,-0.126 0.422,-0.19 0.73,-0.19 0.288,0 0.57,0.06 0.845,0.177 l -0.144,0.33 c -0.268,-0.11 -0.51,-0.165 -0.73,-0.165 -0.19,0 -0.336,0.03 -0.434,0.09 -0.098,0.06 -0.146,0.144 -0.146,0.25 0,0.07 0.02,0.132 0.055,0.182 0.037,0.05 0.096,0.1 0.178,0.145 0.08,0.046 0.237,0.11 0.47,0.197 0.316,0.115 0.53,0.23 0.642,0.35 0.11,0.116 0.165,0.263 0.165,0.44 z M 62.686,58.8 c -0.392,0 -0.702,0.13 -0.93,0.393 -0.226,0.26 -0.34,0.62 -0.34,1.072 0,0.468 0.11,0.828 0.33,1.083 0.22,0.255 0.53,0.382 0.936,0.382 0.25,0 0.533,-0.044 0.852,-0.134 l 0,0.364 c -0.247,0.092 -0.553,0.14 -0.916,0.14 -0.526,0 -0.93,-0.16 -1.217,-0.48 -0.284,-0.32 -0.427,-0.772 -0.427,-1.36 0,-0.367 0.07,-0.69 0.207,-0.966 0.137,-0.277 0.336,-0.49 0.596,-0.64 0.26,-0.15 0.565,-0.226 0.917,-0.226 0.375,0 0.702,0.068 0.982,0.205 L 63.5,58.99 C 63.227,58.865 62.956,58.8 62.686,58.8 Z m 3.874,1.91 c 0,0.437 -0.108,0.777 -0.328,1.022 -0.22,0.245 -0.523,0.367 -0.91,0.367 -0.24,0 -0.452,-0.058 -0.638,-0.17 -0.186,-0.112 -0.33,-0.272 -0.43,-0.483 -0.102,-0.21 -0.15,-0.455 -0.15,-0.736 0,-0.436 0.107,-0.775 0.326,-1.02 0.218,-0.242 0.52,-0.364 0.908,-0.364 0.374,0 0.672,0.125 0.892,0.373 0.22,0.25 0.33,0.585 0.33,1.01 z m -2.037,0 c 0,0.343 0.068,0.603 0.205,0.782 0.137,0.18 0.338,0.268 0.603,0.268 0.267,0 0.468,-0.09 0.605,-0.267 0.138,-0.18 0.206,-0.44 0.206,-0.782 0,-0.34 -0.067,-0.598 -0.205,-0.774 -0.138,-0.176 -0.34,-0.266 -0.61,-0.266 -0.264,0 -0.464,0.088 -0.6,0.262 -0.135,0.173 -0.202,0.433 -0.202,0.78 z m 6.159,1.34 0,-1.74 c 0,-0.214 -0.045,-0.374 -0.137,-0.48 -0.09,-0.106 -0.232,-0.16 -0.425,-0.16 -0.252,0 -0.438,0.073 -0.56,0.218 -0.12,0.145 -0.18,0.368 -0.18,0.67 l 0,1.493 -0.405,0 0,-1.74 c 0,-0.213 -0.046,-0.373 -0.137,-0.48 -0.092,-0.105 -0.233,-0.16 -0.428,-0.16 -0.254,0 -0.44,0.077 -0.558,0.23 -0.118,0.153 -0.177,0.402 -0.177,0.748 l 0,1.404 -0.405,0 0,-2.676 0.33,0 0.065,0.366 0.02,0 c 0.076,-0.13 0.185,-0.23 0.323,-0.306 0.14,-0.072 0.295,-0.11 0.468,-0.11 0.418,0 0.69,0.152 0.82,0.455 l 0.02,0 c 0.08,-0.14 0.195,-0.25 0.347,-0.33 0.152,-0.08 0.323,-0.123 0.518,-0.123 0.304,0 0.53,0.078 0.68,0.233 0.15,0.155 0.227,0.403 0.227,0.745 l 0,1.746 -0.405,0 z m 4.651,0 0,-1.74 c 0,-0.214 -0.046,-0.374 -0.137,-0.48 -0.092,-0.106 -0.233,-0.16 -0.425,-0.16 -0.252,0 -0.437,0.073 -0.56,0.218 -0.12,0.145 -0.18,0.368 -0.18,0.67 l 0,1.493 -0.405,0 0,-1.74 c 0,-0.213 -0.045,-0.373 -0.137,-0.48 -0.09,-0.105 -0.233,-0.16 -0.427,-0.16 -0.253,0 -0.44,0.077 -0.558,0.23 -0.117,0.152 -0.177,0.402 -0.177,0.748 l 0,1.404 -0.405,0 0,-2.676 0.33,0 0.065,0.366 0.02,0 c 0.077,-0.13 0.185,-0.23 0.323,-0.306 0.14,-0.072 0.296,-0.11 0.468,-0.11 0.42,0 0.692,0.152 0.82,0.455 l 0.02,0 c 0.08,-0.14 0.195,-0.25 0.347,-0.33 0.152,-0.08 0.324,-0.123 0.518,-0.123 0.304,0 0.53,0.078 0.68,0.233 0.152,0.155 0.228,0.403 0.228,0.745 l 0,1.746 -0.405,0 z m 2.887,0 -0.082,-0.38 -0.02,0 c -0.133,0.167 -0.267,0.28 -0.398,0.34 -0.133,0.06 -0.3,0.09 -0.497,0.09 -0.266,0 -0.474,-0.07 -0.624,-0.206 -0.15,-0.136 -0.227,-0.33 -0.227,-0.584 0,-0.54 0.432,-0.823 1.296,-0.85 l 0.453,-0.014 0,-0.166 c 0,-0.21 -0.045,-0.365 -0.135,-0.466 -0.09,-0.1 -0.235,-0.15 -0.434,-0.15 -0.224,0 -0.476,0.07 -0.757,0.206 L 76.67,59.56 c 0.132,-0.072 0.276,-0.13 0.434,-0.17 0.157,-0.04 0.314,-0.06 0.473,-0.06 0.317,0 0.555,0.07 0.708,0.21 0.154,0.144 0.23,0.37 0.23,0.683 l 0,1.826 -0.3,0 z m -0.917,-0.285 c 0.253,0 0.45,-0.07 0.595,-0.208 0.145,-0.14 0.216,-0.332 0.216,-0.58 l 0,-0.243 -0.405,0.018 c -0.323,0.012 -0.556,0.062 -0.697,0.15 -0.143,0.09 -0.214,0.227 -0.214,0.414 0,0.146 0.043,0.258 0.132,0.334 0.089,0.076 0.212,0.115 0.37,0.115 z m 3.882,0.285 0,-1.73 c 0,-0.22 -0.05,-0.38 -0.148,-0.488 -0.1,-0.107 -0.255,-0.162 -0.467,-0.162 -0.28,0 -0.484,0.076 -0.615,0.228 -0.13,0.15 -0.195,0.4 -0.195,0.75 l 0,1.403 -0.405,0 0,-2.675 0.33,0 0.065,0.366 0.02,0 c 0.083,-0.13 0.2,-0.233 0.35,-0.306 0.15,-0.072 0.316,-0.108 0.5,-0.108 0.322,0 0.565,0.078 0.728,0.233 0.163,0.154 0.244,0.402 0.244,0.744 l 0,1.746 -0.407,0 z m 3.059,-0.36 -0.022,0 c -0.187,0.273 -0.467,0.41 -0.84,0.41 -0.35,0 -0.622,-0.12 -0.816,-0.36 -0.194,-0.238 -0.292,-0.58 -0.292,-1.02 0,-0.44 0.098,-0.784 0.293,-1.028 0.195,-0.244 0.468,-0.366 0.815,-0.366 0.363,0 0.642,0.132 0.835,0.396 l 0.032,0 -0.02,-0.192 -0.01,-0.188 0,-1.09 0.406,0 0,3.8 -0.33,0 -0.052,-0.36 z m -0.81,0.07 c 0.276,0 0.478,-0.076 0.602,-0.227 0.125,-0.15 0.187,-0.394 0.187,-0.73 l 0,-0.083 c 0,-0.38 -0.062,-0.65 -0.188,-0.812 -0.127,-0.162 -0.328,-0.242 -0.604,-0.242 -0.237,0 -0.42,0.092 -0.545,0.276 -0.125,0.184 -0.19,0.446 -0.19,0.782 0,0.342 0.063,0.6 0.19,0.774 0.122,0.175 0.305,0.26 0.55,0.26 z m 3.779,-0.44 c 0,0.25 -0.093,0.44 -0.278,0.576 -0.186,0.136 -0.446,0.203 -0.78,0.203 -0.356,0 -0.633,-0.058 -0.83,-0.17 l 0,-0.376 c 0.127,0.065 0.266,0.117 0.412,0.154 0.147,0.037 0.29,0.057 0.427,0.057 0.21,0 0.374,-0.034 0.488,-0.102 0.113,-0.067 0.17,-0.17 0.17,-0.31 0,-0.103 -0.045,-0.192 -0.135,-0.267 -0.09,-0.074 -0.267,-0.162 -0.528,-0.263 -0.25,-0.093 -0.428,-0.174 -0.532,-0.243 -0.105,-0.07 -0.184,-0.147 -0.234,-0.235 -0.052,-0.088 -0.077,-0.192 -0.077,-0.315 0,-0.218 0.09,-0.39 0.267,-0.516 0.177,-0.126 0.42,-0.19 0.73,-0.19 0.287,0 0.57,0.06 0.844,0.177 l -0.144,0.33 c -0.27,-0.11 -0.512,-0.165 -0.73,-0.165 -0.19,0 -0.337,0.03 -0.435,0.09 -0.098,0.06 -0.147,0.144 -0.147,0.25 0,0.07 0.02,0.132 0.055,0.182 0.037,0.05 0.096,0.1 0.178,0.145 0.08,0.046 0.237,0.11 0.47,0.197 0.316,0.115 0.53,0.23 0.642,0.35 0.11,0.116 0.165,0.263 0.165,0.44 z m 2.014,-2.84 -1.33,3.57 -0.405,0 1.33,-3.57 0.405,0 z m -19.429,8.57 -1.99,0 0,-3.57 1.99,0 0,0.37 -1.574,0 0,1.15 1.48,0 0,0.366 -1.48,0 0,1.313 1.574,0 0,0.37 z m 1.316,0 -1.016,-2.676 0.435,0 0.576,1.587 c 0.13,0.372 0.205,0.613 0.228,0.724 l 0.02,0 c 0.018,-0.086 0.074,-0.265 0.17,-0.536 0.095,-0.27 0.31,-0.862 0.64,-1.773 l 0.436,0 -1.016,2.676 -0.474,0 z m 3.049,0.05 c -0.396,0 -0.707,-0.12 -0.936,-0.362 -0.23,-0.24 -0.344,-0.575 -0.344,-1.004 0,-0.43 0.106,-0.773 0.32,-1.027 0.21,-0.254 0.496,-0.38 0.854,-0.38 0.335,0 0.6,0.11 0.796,0.33 0.196,0.22 0.293,0.51 0.293,0.872 l 0,0.256 -1.844,0 c 0.01,0.314 0.088,0.553 0.238,0.716 0.15,0.162 0.362,0.244 0.636,0.244 0.288,0 0.573,-0.06 0.854,-0.182 l 0,0.36 c -0.143,0.063 -0.278,0.107 -0.406,0.135 -0.126,0.026 -0.28,0.04 -0.46,0.04 z m -0.11,-2.434 c -0.214,0 -0.386,0.07 -0.513,0.21 -0.128,0.14 -0.203,0.333 -0.227,0.58 l 1.4,0 c 0,-0.255 -0.06,-0.45 -0.172,-0.587 -0.112,-0.137 -0.275,-0.204 -0.486,-0.204 z m 3.617,2.384 0,-1.73 c 0,-0.22 -0.05,-0.38 -0.15,-0.488 -0.1,-0.107 -0.254,-0.162 -0.466,-0.162 -0.28,0 -0.484,0.076 -0.615,0.228 -0.13,0.15 -0.196,0.4 -0.196,0.75 l 0,1.403 -0.405,0 0,-2.675 0.33,0 0.064,0.366 0.02,0 c 0.083,-0.13 0.2,-0.233 0.35,-0.306 0.15,-0.072 0.316,-0.108 0.5,-0.108 0.322,0 0.565,0.078 0.728,0.233 0.163,0.154 0.244,0.402 0.244,0.744 l 0,1.746 -0.407,0 z m 2.102,-0.285 c 0.07,0 0.14,-0.006 0.207,-0.017 0.066,-0.01 0.12,-0.02 0.158,-0.032 l 0,0.31 c -0.044,0.02 -0.108,0.04 -0.194,0.053 -0.085,0.013 -0.162,0.02 -0.23,0.02 -0.518,0 -0.776,-0.272 -0.776,-0.818 l 0,-1.591 -0.384,0 0,-0.195 0.384,-0.168 0.17,-0.57 0.235,0 0,0.62 0.776,0 0,0.313 -0.777,0 0,1.575 c 0,0.16 0.038,0.285 0.114,0.37 0.076,0.086 0.18,0.13 0.315,0.13 z m 2.626,-0.445 c 0,0.25 -0.093,0.44 -0.278,0.576 -0.186,0.136 -0.446,0.203 -0.78,0.203 -0.356,0 -0.633,-0.058 -0.83,-0.17 l 0,-0.376 c 0.127,0.065 0.266,0.117 0.412,0.154 0.147,0.037 0.29,0.057 0.427,0.057 0.21,0 0.373,-0.034 0.487,-0.102 0.113,-0.067 0.17,-0.17 0.17,-0.31 0,-0.103 -0.045,-0.192 -0.135,-0.267 -0.09,-0.074 -0.267,-0.162 -0.528,-0.263 -0.25,-0.093 -0.427,-0.174 -0.53,-0.243 -0.106,-0.07 -0.185,-0.147 -0.235,-0.235 -0.053,-0.088 -0.078,-0.192 -0.078,-0.315 0,-0.218 0.09,-0.39 0.267,-0.516 0.176,-0.126 0.42,-0.19 0.728,-0.19 0.288,0 0.57,0.06 0.845,0.177 l -0.144,0.33 c -0.27,-0.11 -0.513,-0.165 -0.73,-0.165 -0.192,0 -0.338,0.03 -0.436,0.09 -0.098,0.06 -0.146,0.144 -0.146,0.25 0,0.07 0.02,0.132 0.055,0.182 0.037,0.05 0.096,0.1 0.178,0.145 0.082,0.046 0.238,0.11 0.47,0.197 0.317,0.115 0.53,0.23 0.643,0.35 0.11,0.116 0.165,0.263 0.165,0.44 z"
       id="path26"
       inkscape:connector-curvature="0" />
  </g>
  <path
     d="m 119.376,18.433 16.013,0 0,45.243 -16.014,0 z m 7.276,-3.053 c 0.368,0 0.666,-0.55 0.666,-1.23 0,-0.68 -0.3,-1.228 -0.666,-1.228 l -7.276,0 0,2.458 7.276,0 z m -7.274,59.446 c 1.79,0 3.25,-1.46 3.25,-3.257 0,-1.798 -1.46,-3.252 -3.25,-3.252 l -0.003,0 0,6.508 0.003,0 z"
     id="path28"
     inkscape:connector-curvature="0"
     style="fill:none" />
  <path
     d="m 134.11,9.824 -14.735,0 0,3.098 7.276,0 c 0.37,0 0.667,0.55 0.667,1.228 0,0.678 -0.3,1.23 -0.666,1.23 l -7.275,0 0,3.052 16.013,0 0,45.243 -16.013,0 0,4.643 0.003,0 c 1.79,0 3.25,1.455 3.25,3.25 0,1.798 -1.46,3.258 -3.25,3.258 l -0.003,0 0,5.036 14.734,0 c 2.814,0 5.096,-2.284 5.096,-5.097 l 0,-59.84 c 0,-2.814 -2.28,-5.1 -5.097,-5.1 z"
     id="path30"
     inkscape:connector-curvature="0"
     style="fill:#67a9dc" />
  <path
     d="m 116.124,71.57 c 0,1.796 1.46,3.255 3.252,3.256 l 0,-6.508 c -1.793,0.002 -3.252,1.456 -3.252,3.252 z M 111.44,14.15 c 0,0.68 0.295,1.23 0.665,1.23 l 7.27,0 0,-2.458 -7.27,0 c -0.37,0 -0.664,0.55 -0.664,1.228 z"
     id="path32"
     inkscape:connector-curvature="0"
     style="fill:#4278a7" />
  <path
     d="m 116.124,71.57 c 0,-1.796 1.46,-3.25 3.252,-3.25 l 0,-4.644 -16.01,0 0,-45.243 16.01,0 0,-3.053 -7.27,0 c -0.37,0 -0.665,-0.55 -0.665,-1.23 0,-0.68 0.295,-1.228 0.665,-1.228 l 7.27,0 0,-3.098 -14.733,0 c -2.82,0 -5.097,2.287 -5.097,5.102 l 0,59.84 c 0,2.812 2.277,5.096 5.097,5.096 l 14.734,0 0,-5.036 c -1.793,0 -3.252,-1.46 -3.252,-3.256 z"
     id="path34"
     inkscape:connector-curvature="0"
     style="fill:#83bbe6" />
  <path
     d="m 122.834,31.04 c -0.015,-1.498 1.222,-2.217 1.278,-2.253 -0.695,-1.017 -1.778,-1.157 -2.164,-1.173 -0.922,-0.093 -1.798,0.543 -2.266,0.543 -0.467,0 -1.188,-0.53 -1.953,-0.515 -1.006,0.015 -1.932,0.584 -2.45,1.484 -1.043,1.81 -0.266,4.494 0.75,5.963 0.498,0.718 1.09,1.526 1.87,1.497 0.748,-0.03 1.032,-0.485 1.938,-0.485 0.906,0 1.16,0.485 1.954,0.47 0.807,-0.015 1.317,-0.733 1.81,-1.454 0.572,-0.834 0.807,-1.642 0.82,-1.683 -0.018,-0.008 -1.572,-0.604 -1.588,-2.394 z m -1.49,-4.398 c 0.413,-0.5 0.692,-1.196 0.616,-1.89 -0.595,0.024 -1.316,0.396 -1.743,0.896 -0.383,0.444 -0.718,1.152 -0.63,1.83 0.665,0.053 1.343,-0.336 1.757,-0.836 z"
     id="path36"
     inkscape:connector-curvature="0"
     style="fill:#e6e326" />
  <g
     id="g38"
     transform="translate(0,-22)"
     style="fill:#e6e326">
    <path
       d="m 115.487,69.472 -0.03,0 c -0.37,0 -0.673,0.303 -0.673,0.674 l 0,2.933 c 0,0.37 0.303,0.673 0.674,0.673 l 0.03,0 c 0.37,0 0.673,-0.303 0.673,-0.674 l 0,-2.934 c 0,-0.37 -0.302,-0.674 -0.673,-0.674 z m 0.996,4.738 c 0,0.34 0.278,0.618 0.62,0.618 l 0.66,0 0,1.584 c 0,0.372 0.303,0.675 0.674,0.675 l 0.03,0 c 0.37,0 0.674,-0.303 0.674,-0.675 l 0,-1.584 0.925,0 0,1.584 c 0,0.372 0.304,0.675 0.675,0.675 l 0.028,0 c 0.372,0 0.674,-0.303 0.674,-0.675 l 0,-1.584 0.662,0 c 0.34,0 0.62,-0.277 0.62,-0.618 l 0,-4.63 -6.24,0 0,4.63 z m 4.674,-7.44 0.525,-0.81 c 0.034,-0.05 0.02,-0.12 -0.033,-0.154 -0.052,-0.034 -0.122,-0.02 -0.155,0.033 l -0.545,0.838 c -0.41,-0.167 -0.865,-0.262 -1.347,-0.262 -0.482,0 -0.938,0.094 -1.348,0.262 l -0.544,-0.84 c -0.032,-0.052 -0.103,-0.066 -0.154,-0.032 -0.052,0.033 -0.067,0.103 -0.033,0.154 l 0.526,0.81 c -0.95,0.466 -1.588,1.34 -1.588,2.346 0,0.062 0.004,0.123 0.01,0.183 l 6.263,0 c 0.005,-0.06 0.01,-0.122 0.01,-0.184 0,-1.004 -0.64,-1.88 -1.588,-2.345 z m -3.006,1.454 c -0.165,0 -0.3,-0.134 -0.3,-0.3 0,-0.168 0.134,-0.302 0.3,-0.302 0.168,0 0.303,0.134 0.303,0.3 0,0.168 -0.135,0.302 -0.302,0.302 z m 2.906,0 c -0.166,0 -0.302,-0.134 -0.302,-0.3 0,-0.168 0.135,-0.302 0.302,-0.302 0.167,0 0.3,0.134 0.3,0.3 0,0.168 -0.134,0.302 -0.3,0.302 z m 2.691,1.248 -0.028,0 c -0.37,0 -0.675,0.303 -0.675,0.674 l 0,2.933 c 0,0.37 0.304,0.673 0.675,0.673 l 0.028,0 c 0.372,0 0.674,-0.303 0.674,-0.674 l 0,-2.934 c 0,-0.37 -0.303,-0.674 -0.674,-0.674 z"
       id="path40"
       inkscape:connector-curvature="0" />
  </g>
  <g
     id="g44"
     transform="translate(0,-32)"
     style="fill:#356282">
    <path
       d="m 200.995,129.154 -0.492,0 -0.864,-2.868 c -0.042,-0.127 -0.088,-0.287 -0.14,-0.48 -0.052,-0.193 -0.076,-0.31 -0.078,-0.35 -0.043,0.26 -0.11,0.54 -0.205,0.848 l -0.838,2.85 -0.493,0 -1.14,-4.282 0.527,0 0.677,2.646 c 0.095,0.37 0.163,0.707 0.206,1.008 0.053,-0.357 0.13,-0.707 0.234,-1.05 l 0.768,-2.603 0.527,0 0.806,2.628 c 0.095,0.304 0.174,0.646 0.238,1.026 0.037,-0.277 0.107,-0.615 0.21,-1.014 l 0.675,-2.64 0.527,0 -1.145,4.282 z m 3.1,0.059 c -0.475,0 -0.85,-0.145 -1.124,-0.434 -0.274,-0.289 -0.41,-0.69 -0.41,-1.205 0,-0.518 0.127,-0.93 0.382,-1.233 0.255,-0.303 0.598,-0.457 1.027,-0.457 0.4,0 0.72,0.133 0.954,0.396 0.234,0.267 0.352,0.615 0.352,1.05 l 0,0.307 -2.212,0 c 0.01,0.377 0.104,0.663 0.285,0.858 0.181,0.195 0.435,0.293 0.763,0.293 0.346,0 0.688,-0.072 1.025,-0.217 l 0,0.435 c -0.172,0.074 -0.335,0.128 -0.488,0.16 -0.154,0.032 -0.338,0.048 -0.555,0.048 z m -0.132,-2.92 c -0.258,0 -0.464,0.083 -0.617,0.25 -0.153,0.167 -0.243,0.4 -0.27,0.698 l 1.678,0 c 0,-0.306 -0.068,-0.54 -0.205,-0.703 -0.137,-0.163 -0.333,-0.245 -0.587,-0.245 z m 4.117,2.861 -0.098,-0.457 -0.023,0 c -0.16,0.2 -0.32,0.338 -0.48,0.408 -0.16,0.07 -0.357,0.107 -0.596,0.107 -0.318,0 -0.568,-0.082 -0.75,-0.246 -0.182,-0.164 -0.27,-0.397 -0.27,-0.7 0,-0.648 0.52,-0.988 1.556,-1.02 l 0.545,-0.018 0,-0.2 c 0,-0.25 -0.055,-0.437 -0.163,-0.557 -0.108,-0.12 -0.28,-0.18 -0.52,-0.18 -0.268,0 -0.57,0.082 -0.908,0.246 l -0.15,-0.372 c 0.16,-0.086 0.332,-0.153 0.52,-0.202 0.188,-0.049 0.38,-0.073 0.568,-0.073 0.383,0 0.666,0.084 0.85,0.254 0.184,0.17 0.278,0.442 0.278,0.817 l 0,2.192 -0.36,0 z m -1.1,-0.343 c 0.304,0 0.54,-0.082 0.714,-0.248 0.174,-0.166 0.26,-0.398 0.26,-0.697 l 0,-0.29 -0.486,0.02 c -0.387,0.015 -0.666,0.075 -0.837,0.18 -0.17,0.108 -0.255,0.273 -0.255,0.498 0,0.176 0.053,0.31 0.16,0.4 0.107,0.09 0.254,0.138 0.446,0.138 z m 3.5,-0.001 c 0.085,0 0.168,-0.005 0.248,-0.018 0.08,-0.013 0.144,-0.026 0.19,-0.04 l 0,0.372 c -0.053,0.025 -0.13,0.046 -0.233,0.062 -0.103,0.016 -0.194,0.025 -0.276,0.025 -0.622,0 -0.933,-0.326 -0.933,-0.98 l 0,-1.91 -0.46,0 0,-0.234 0.46,-0.202 0.205,-0.686 0.28,0 0,0.744 0.933,0 0,0.378 -0.932,0 0,1.89 c 0,0.193 0.046,0.342 0.138,0.445 0.092,0.103 0.218,0.156 0.38,0.156 z m 3.277,0.344 0,-2.077 c 0,-0.262 -0.06,-0.457 -0.18,-0.586 -0.12,-0.129 -0.305,-0.192 -0.56,-0.192 -0.337,0 -0.584,0.092 -0.74,0.275 -0.156,0.183 -0.23,0.484 -0.23,0.902 l 0,1.68 -0.487,0 0,-4.56 0.486,0 0,1.38 c 0,0.166 -0.008,0.304 -0.023,0.413 l 0.03,0 c 0.095,-0.154 0.23,-0.275 0.407,-0.365 0.177,-0.088 0.38,-0.133 0.605,-0.133 0.393,0 0.687,0.094 0.883,0.28 0.196,0.187 0.295,0.482 0.295,0.89 l 0,2.094 -0.486,0 z m 2.843,0.059 c -0.476,0 -0.85,-0.145 -1.125,-0.434 -0.275,-0.289 -0.41,-0.69 -0.41,-1.205 0,-0.518 0.126,-0.93 0.38,-1.233 0.254,-0.303 0.6,-0.457 1.028,-0.457 0.402,0 0.72,0.133 0.955,0.396 0.234,0.267 0.352,0.615 0.352,1.05 l 0,0.307 -2.212,0 c 0.01,0.377 0.104,0.663 0.285,0.858 0.181,0.195 0.436,0.293 0.764,0.293 0.346,0 0.688,-0.072 1.025,-0.217 l 0,0.435 c -0.172,0.074 -0.335,0.128 -0.488,0.16 -0.154,0.032 -0.34,0.048 -0.555,0.048 z m -0.133,-2.92 c -0.258,0 -0.464,0.083 -0.617,0.25 -0.153,0.167 -0.243,0.4 -0.27,0.698 l 1.678,0 c 0,-0.306 -0.068,-0.54 -0.205,-0.703 -0.137,-0.163 -0.332,-0.245 -0.586,-0.245 z m 3.606,-0.409 c 0.143,0 0.27,0.012 0.384,0.035 l -0.067,0.45 c -0.133,-0.03 -0.25,-0.044 -0.352,-0.044 -0.26,0 -0.482,0.105 -0.667,0.316 -0.185,0.211 -0.275,0.474 -0.275,0.788 l 0,1.723 -0.486,0 0,-3.21 0.4,0 0.056,0.594 0.023,0 c 0.118,-0.21 0.262,-0.37 0.43,-0.483 0.168,-0.113 0.352,-0.17 0.553,-0.17 z"
       id="path46"
       inkscape:connector-curvature="0" />
  </g>
  <g
     id="g52"
     transform="translate(0,-32)"
     style="fill:#356282">
    <path
       d="m 203.538,140.053 c 0,0.377 -0.137,0.67 -0.41,0.882 -0.273,0.212 -0.645,0.316 -1.113,0.316 -0.508,0 -0.898,-0.064 -1.172,-0.195 l 0,-0.48 c 0.176,0.074 0.367,0.133 0.574,0.176 0.207,0.043 0.412,0.065 0.615,0.065 0.332,0 0.582,-0.063 0.75,-0.188 0.168,-0.127 0.252,-0.302 0.252,-0.526 0,-0.147 -0.03,-0.27 -0.09,-0.363 -0.06,-0.093 -0.16,-0.183 -0.3,-0.263 -0.14,-0.08 -0.35,-0.17 -0.636,-0.272 -0.398,-0.143 -0.684,-0.312 -0.854,-0.507 -0.17,-0.195 -0.256,-0.45 -0.256,-0.765 0,-0.33 0.124,-0.593 0.372,-0.788 0.248,-0.195 0.576,-0.293 0.984,-0.293 0.426,0 0.817,0.077 1.175,0.233 l -0.156,0.434 c -0.354,-0.148 -0.697,-0.223 -1.03,-0.223 -0.265,0 -0.47,0.057 -0.62,0.17 -0.15,0.113 -0.222,0.27 -0.222,0.472 0,0.148 0.027,0.27 0.082,0.365 0.055,0.095 0.146,0.183 0.276,0.26 0.13,0.08 0.33,0.168 0.597,0.264 0.45,0.16 0.758,0.332 0.927,0.516 0.169,0.184 0.254,0.42 0.254,0.713 z m 3.574,-0.468 c 0,0.523 -0.132,0.933 -0.396,1.226 -0.264,0.296 -0.628,0.442 -1.093,0.442 -0.287,0 -0.542,-0.067 -0.765,-0.202 -0.223,-0.135 -0.395,-0.328 -0.516,-0.58 -0.121,-0.252 -0.182,-0.547 -0.182,-0.885 0,-0.523 0.13,-0.93 0.393,-1.224 0.262,-0.29 0.625,-0.437 1.09,-0.437 0.45,0 0.806,0.15 1.07,0.448 0.264,0.298 0.4,0.705 0.4,1.215 z m -2.446,0 c 0,0.41 0.082,0.723 0.246,0.938 0.164,0.215 0.405,0.322 0.724,0.322 0.319,0 0.56,-0.106 0.725,-0.32 0.166,-0.214 0.25,-0.527 0.25,-0.94 0,-0.407 -0.084,-0.717 -0.25,-0.93 -0.164,-0.21 -0.407,-0.317 -0.73,-0.317 -0.317,0 -0.558,0.104 -0.72,0.313 -0.162,0.209 -0.244,0.52 -0.244,0.935 z m 4.582,1.667 c -0.465,0 -0.825,-0.143 -1.08,-0.43 -0.255,-0.285 -0.382,-0.69 -0.382,-1.214 0,-0.537 0.13,-0.952 0.388,-1.245 0.258,-0.293 0.628,-0.44 1.106,-0.44 0.154,0 0.31,0.018 0.463,0.05 0.153,0.032 0.275,0.073 0.363,0.118 l -0.15,0.414 c -0.106,-0.043 -0.224,-0.078 -0.35,-0.107 -0.128,-0.027 -0.24,-0.042 -0.338,-0.042 -0.652,0 -0.98,0.416 -0.98,1.248 0,0.395 0.08,0.697 0.24,0.908 0.16,0.211 0.395,0.317 0.707,0.317 0.268,0 0.542,-0.058 0.823,-0.173 l 0,0.43 c -0.213,0.112 -0.484,0.168 -0.81,0.168 z m 1.532,-4.14 c 0,-0.11 0.027,-0.192 0.082,-0.245 0.055,-0.05 0.123,-0.077 0.205,-0.077 0.078,0 0.146,0.026 0.202,0.08 0.056,0.054 0.084,0.133 0.084,0.242 0,0.109 -0.028,0.19 -0.085,0.245 -0.057,0.055 -0.125,0.08 -0.203,0.08 -0.082,0 -0.15,-0.026 -0.205,-0.08 -0.055,-0.054 -0.082,-0.136 -0.082,-0.245 z m 0.528,4.08 -0.486,0 0,-3.21 0.486,0 0,3.21 z m 3.006,0.001 -0.097,-0.457 -0.023,0 c -0.16,0.2 -0.32,0.338 -0.48,0.408 -0.158,0.07 -0.356,0.107 -0.595,0.107 -0.32,0 -0.57,-0.08 -0.75,-0.245 -0.18,-0.165 -0.27,-0.397 -0.27,-0.7 0,-0.648 0.518,-0.988 1.555,-1.02 l 0.545,-0.018 0,-0.2 c 0,-0.25 -0.055,-0.437 -0.163,-0.557 -0.108,-0.12 -0.28,-0.18 -0.52,-0.18 -0.268,0 -0.57,0.08 -0.908,0.245 l -0.15,-0.372 c 0.158,-0.086 0.33,-0.153 0.52,-0.202 0.19,-0.049 0.378,-0.072 0.567,-0.072 0.383,0 0.666,0.085 0.85,0.255 0.184,0.17 0.278,0.442 0.278,0.817 l 0,2.19 -0.36,0 z m -1.1,-0.343 c 0.304,0 0.54,-0.083 0.714,-0.25 0.174,-0.167 0.26,-0.397 0.26,-0.696 l 0,-0.29 -0.486,0.02 c -0.387,0.015 -0.666,0.075 -0.837,0.18 -0.17,0.108 -0.256,0.273 -0.256,0.498 0,0.176 0.052,0.31 0.158,0.4 0.106,0.09 0.255,0.138 0.447,0.138 z m 2.948,0.343 -0.486,0 0,-4.56 0.486,0 0,4.56 z"
       id="path54"
       inkscape:connector-curvature="0" />
  </g>
  <g
     id="g56"
     transform="translate(0,-32)"
     style="fill:#356282">
    <path
       d="m 197.978,151.048 c 0,0.707 -0.192,1.248 -0.576,1.622 -0.384,0.374 -0.936,0.56 -1.656,0.56 l -1.187,0 0,-4.282 1.31,0 c 0.667,0 1.185,0.185 1.554,0.554 0.369,0.369 0.554,0.883 0.554,1.546 z m -0.528,0.017 c 0,-0.56 -0.14,-0.98 -0.42,-1.263 -0.28,-0.283 -0.697,-0.425 -1.25,-0.425 l -0.724,0 0,3.422 0.606,0 c 0.594,0 1.04,-0.147 1.34,-0.44 0.3,-0.29 0.448,-0.723 0.448,-1.295 z m 3.384,2.165 -0.097,-0.457 -0.023,0 c -0.16,0.2 -0.32,0.338 -0.48,0.408 -0.158,0.072 -0.356,0.108 -0.595,0.108 -0.32,0 -0.57,-0.082 -0.75,-0.246 -0.18,-0.164 -0.27,-0.397 -0.27,-0.7 0,-0.648 0.518,-0.988 1.555,-1.02 l 0.545,-0.018 0,-0.2 c 0,-0.25 -0.055,-0.437 -0.163,-0.557 -0.108,-0.12 -0.28,-0.18 -0.52,-0.18 -0.268,0 -0.57,0.08 -0.908,0.245 l -0.15,-0.372 c 0.158,-0.086 0.33,-0.153 0.52,-0.202 0.19,-0.049 0.378,-0.073 0.567,-0.073 0.383,0 0.666,0.085 0.85,0.255 0.184,0.17 0.278,0.442 0.278,0.817 l 0,2.19 -0.36,0 z m -1.1,-0.343 c 0.304,0 0.54,-0.083 0.714,-0.25 0.174,-0.167 0.26,-0.397 0.26,-0.696 l 0,-0.29 -0.486,0.022 c -0.387,0.014 -0.666,0.074 -0.837,0.18 -0.17,0.107 -0.256,0.272 -0.256,0.497 0,0.175 0.052,0.31 0.158,0.4 0.106,0.09 0.256,0.137 0.447,0.137 z m 3.499,0 c 0.086,0 0.17,-0.006 0.25,-0.02 0.08,-0.014 0.143,-0.025 0.19,-0.04 l 0,0.373 c -0.054,0.025 -0.132,0.046 -0.234,0.062 -0.102,0.016 -0.195,0.025 -0.277,0.025 -0.62,0 -0.932,-0.327 -0.932,-0.98 l 0,-1.91 -0.46,0 0,-0.235 0.46,-0.202 0.206,-0.686 0.28,0 0,0.744 0.933,0 0,0.378 -0.933,0 0,1.89 c 0,0.193 0.046,0.342 0.138,0.445 0.092,0.103 0.218,0.157 0.378,0.157 z m 3.057,0.343 -0.098,-0.457 -0.023,0 c -0.16,0.2 -0.32,0.338 -0.48,0.408 -0.16,0.072 -0.357,0.108 -0.596,0.108 -0.318,0 -0.568,-0.082 -0.75,-0.246 -0.182,-0.164 -0.27,-0.397 -0.27,-0.7 0,-0.648 0.52,-0.988 1.556,-1.02 l 0.545,-0.018 0,-0.2 c 0,-0.25 -0.055,-0.437 -0.163,-0.557 -0.108,-0.12 -0.28,-0.18 -0.52,-0.18 -0.268,0 -0.57,0.08 -0.908,0.245 l -0.15,-0.372 c 0.16,-0.086 0.332,-0.153 0.52,-0.202 0.188,-0.049 0.38,-0.073 0.568,-0.073 0.383,0 0.666,0.085 0.85,0.255 0.184,0.17 0.278,0.442 0.278,0.817 l 0,2.19 -0.36,0 z m -1.1,-0.343 c 0.303,0 0.54,-0.083 0.713,-0.25 0.173,-0.167 0.26,-0.397 0.26,-0.696 l 0,-0.29 -0.486,0.022 c -0.387,0.014 -0.666,0.074 -0.837,0.18 -0.17,0.107 -0.256,0.272 -0.256,0.497 0,0.175 0.053,0.31 0.16,0.4 0.107,0.09 0.255,0.137 0.446,0.137 z m 3.956,-2.92 c 0.422,0 0.75,0.145 0.982,0.432 0.233,0.288 0.35,0.695 0.35,1.223 0,0.528 -0.117,0.938 -0.353,1.23 -0.236,0.292 -0.562,0.437 -0.98,0.437 -0.208,0 -0.4,-0.04 -0.572,-0.115 -0.173,-0.077 -0.317,-0.196 -0.435,-0.356 l -0.035,0 -0.103,0.41 -0.35,0 0,-4.56 0.487,0 0,1.108 c 0,0.248 -0.008,0.47 -0.023,0.668 l 0.023,0 c 0.227,-0.32 0.563,-0.48 1.01,-0.48 z m -0.07,0.407 c -0.333,0 -0.572,0.095 -0.72,0.286 -0.145,0.19 -0.22,0.51 -0.22,0.962 0,0.452 0.076,0.774 0.227,0.968 0.15,0.195 0.392,0.292 0.724,0.292 0.3,0 0.52,-0.108 0.668,-0.327 0.146,-0.217 0.22,-0.53 0.22,-0.938 0,-0.418 -0.073,-0.73 -0.22,-0.935 -0.147,-0.205 -0.373,-0.308 -0.68,-0.308 z m 4.227,2.856 -0.097,-0.457 -0.023,0 c -0.16,0.2 -0.32,0.338 -0.48,0.408 -0.158,0.072 -0.356,0.108 -0.595,0.108 -0.318,0 -0.568,-0.082 -0.75,-0.246 -0.182,-0.164 -0.27,-0.397 -0.27,-0.7 0,-0.648 0.52,-0.988 1.556,-1.02 l 0.545,-0.018 0,-0.2 c 0,-0.25 -0.056,-0.437 -0.164,-0.557 -0.108,-0.12 -0.28,-0.18 -0.52,-0.18 -0.268,0 -0.57,0.08 -0.908,0.245 l -0.15,-0.372 c 0.16,-0.086 0.332,-0.153 0.52,-0.202 0.188,-0.049 0.38,-0.073 0.568,-0.073 0.383,0 0.666,0.085 0.85,0.255 0.184,0.17 0.278,0.442 0.278,0.817 l 0,2.19 -0.36,0 z m -1.1,-0.343 c 0.304,0 0.54,-0.083 0.714,-0.25 0.174,-0.167 0.26,-0.397 0.26,-0.696 l 0,-0.29 -0.486,0.022 c -0.386,0.014 -0.665,0.074 -0.836,0.18 -0.17,0.107 -0.256,0.272 -0.256,0.497 0,0.175 0.053,0.31 0.16,0.4 0.107,0.09 0.255,0.137 0.446,0.137 z m 4.533,-0.533 c 0,0.3 -0.11,0.53 -0.334,0.69 -0.224,0.16 -0.535,0.244 -0.938,0.244 -0.426,0 -0.758,-0.067 -0.996,-0.202 l 0,-0.45 c 0.154,0.077 0.32,0.14 0.496,0.184 0.176,0.044 0.348,0.067 0.512,0.067 0.254,0 0.45,-0.04 0.586,-0.122 0.137,-0.08 0.205,-0.204 0.205,-0.37 0,-0.125 -0.055,-0.23 -0.163,-0.32 -0.108,-0.09 -0.32,-0.194 -0.634,-0.315 -0.3,-0.11 -0.512,-0.208 -0.638,-0.29 -0.126,-0.082 -0.22,-0.18 -0.28,-0.284 -0.06,-0.104 -0.093,-0.23 -0.093,-0.378 0,-0.262 0.105,-0.468 0.318,-0.62 0.213,-0.15 0.505,-0.227 0.876,-0.227 0.346,0 0.684,0.07 1.014,0.212 l -0.173,0.396 c -0.322,-0.133 -0.614,-0.2 -0.876,-0.2 -0.23,0 -0.405,0.037 -0.522,0.11 -0.117,0.073 -0.176,0.17 -0.176,0.298 0,0.086 0.02,0.16 0.065,0.22 0.045,0.06 0.115,0.118 0.213,0.173 0.098,0.055 0.285,0.133 0.562,0.236 0.38,0.14 0.638,0.278 0.77,0.42 0.132,0.142 0.204,0.315 0.204,0.528 z m 2.148,0.936 c -0.475,0 -0.85,-0.146 -1.124,-0.435 -0.274,-0.289 -0.41,-0.69 -0.41,-1.204 0,-0.517 0.126,-0.928 0.38,-1.232 0.254,-0.304 0.6,-0.457 1.028,-0.457 0.402,0 0.72,0.134 0.955,0.397 0.234,0.266 0.352,0.614 0.352,1.048 l 0,0.308 -2.212,0 c 0.01,0.377 0.104,0.663 0.285,0.858 0.181,0.195 0.436,0.294 0.764,0.294 0.346,0 0.688,-0.072 1.025,-0.217 l 0,0.434 c -0.172,0.075 -0.335,0.13 -0.488,0.16 -0.155,0.033 -0.34,0.05 -0.556,0.05 z m -0.132,-2.922 c -0.258,0 -0.464,0.084 -0.617,0.252 -0.153,0.168 -0.243,0.4 -0.27,0.697 l 1.678,0 c 0,-0.307 -0.068,-0.54 -0.205,-0.704 -0.137,-0.164 -0.332,-0.245 -0.586,-0.245 z m 4.213,1.986 c 0,0.3 -0.11,0.53 -0.334,0.69 -0.224,0.16 -0.534,0.244 -0.937,0.244 -0.426,0 -0.758,-0.067 -0.996,-0.202 l 0,-0.45 c 0.154,0.077 0.32,0.14 0.496,0.184 0.176,0.044 0.348,0.067 0.512,0.067 0.254,0 0.45,-0.04 0.586,-0.122 0.138,-0.08 0.206,-0.204 0.206,-0.37 0,-0.125 -0.055,-0.23 -0.163,-0.32 -0.108,-0.09 -0.32,-0.194 -0.634,-0.315 -0.3,-0.11 -0.513,-0.208 -0.64,-0.29 -0.127,-0.082 -0.22,-0.18 -0.28,-0.284 -0.06,-0.104 -0.092,-0.23 -0.092,-0.378 0,-0.262 0.106,-0.468 0.32,-0.62 0.212,-0.15 0.504,-0.227 0.875,-0.227 0.346,0 0.684,0.07 1.014,0.212 l -0.173,0.396 c -0.322,-0.133 -0.614,-0.2 -0.876,-0.2 -0.23,0 -0.404,0.037 -0.52,0.11 -0.116,0.073 -0.177,0.17 -0.177,0.298 0,0.086 0.022,0.16 0.066,0.22 0.044,0.06 0.115,0.118 0.213,0.173 0.098,0.055 0.284,0.133 0.56,0.236 0.382,0.14 0.64,0.278 0.772,0.42 0.132,0.142 0.203,0.315 0.203,0.528 z"
       id="path58"
       inkscape:connector-curvature="0" />
  </g>
  <g
     id="g60"
     transform="translate(0,-32)"
     style="fill:#356282">
    <path
       d="m 204.886,165.27 0,-4.284 0.498,0 0,4.283 -0.498,0 z m 4.371,-1.61 c 0,0.524 -0.132,0.934 -0.396,1.227 -0.263,0.295 -0.627,0.44 -1.092,0.44 -0.287,0 -0.542,-0.066 -0.765,-0.2 -0.223,-0.134 -0.395,-0.33 -0.516,-0.58 -0.121,-0.25 -0.182,-0.548 -0.182,-0.886 0,-0.522 0.13,-0.93 0.393,-1.223 0.262,-0.29 0.625,-0.438 1.09,-0.438 0.45,0 0.806,0.148 1.07,0.447 0.264,0.299 0.4,0.704 0.4,1.214 z m -2.446,0 c 0,0.41 0.083,0.724 0.247,0.94 0.164,0.216 0.405,0.32 0.724,0.32 0.319,0 0.56,-0.105 0.726,-0.32 0.165,-0.213 0.248,-0.526 0.248,-0.938 0,-0.408 -0.083,-0.718 -0.248,-0.93 -0.165,-0.212 -0.408,-0.318 -0.73,-0.318 -0.318,0 -0.56,0.104 -0.72,0.313 -0.16,0.209 -0.245,0.52 -0.245,0.934 z m 4.689,1.61 -0.497,0 0,-3.842 -1.356,0 0,-0.442 3.21,0 0,0.442 -1.355,0 0,3.84 z"
       id="path62"
       inkscape:connector-curvature="0" />
  </g>
  <g
     id="g64"
     transform="translate(0,-32)"
     style="fill:#356282">
    <path
       d="m 206.605,175.638 c 0,-0.13 0.03,-0.23 0.09,-0.297 0.06,-0.067 0.145,-0.1 0.256,-0.1 0.114,0 0.202,0.032 0.266,0.1 0.063,0.067 0.096,0.167 0.096,0.298 0,0.127 -0.032,0.225 -0.097,0.293 -0.065,0.068 -0.152,0.104 -0.264,0.104 -0.1,0 -0.182,-0.03 -0.247,-0.093 -0.066,-0.06 -0.098,-0.16 -0.098,-0.302 z m 1.595,0 c 0,-0.13 0.03,-0.23 0.09,-0.297 0.06,-0.067 0.146,-0.1 0.257,-0.1 0.113,0 0.2,0.032 0.265,0.1 0.063,0.067 0.096,0.167 0.096,0.298 0,0.127 -0.032,0.225 -0.097,0.293 -0.065,0.068 -0.15,0.104 -0.263,0.104 -0.1,0 -0.183,-0.03 -0.248,-0.093 -0.067,-0.06 -0.1,-0.16 -0.1,-0.302 z m 1.598,0 c 0,-0.13 0.03,-0.23 0.09,-0.297 0.06,-0.067 0.145,-0.1 0.256,-0.1 0.113,0 0.2,0.032 0.265,0.1 0.062,0.067 0.095,0.167 0.095,0.298 0,0.127 -0.032,0.225 -0.097,0.293 -0.065,0.068 -0.152,0.104 -0.264,0.104 -0.1,0 -0.183,-0.03 -0.248,-0.093 -0.066,-0.06 -0.098,-0.16 -0.098,-0.302 z"
       id="path66"
       inkscape:connector-curvature="0" />
  </g>
  <g
     id="g70"
     transform="translate(0,-32)"
     style="fill:#356282">
    <path
       d="m 110.768,130.282 c -0.184,0 -0.328,-0.026 -0.434,-0.08 l 0,-0.424 c 0.14,0.04 0.283,0.06 0.434,0.06 0.193,0 0.34,-0.06 0.44,-0.177 0.1,-0.117 0.15,-0.285 0.15,-0.506 l 0,-4.283 0.5,0 0,4.243 c 0,0.37 -0.095,0.658 -0.282,0.863 -0.187,0.203 -0.457,0.306 -0.808,0.306 z m 4.642,-2.268 c 0,0.377 -0.136,0.67 -0.41,0.882 -0.274,0.212 -0.644,0.316 -1.112,0.316 -0.508,0 -0.898,-0.065 -1.172,-0.196 l 0,-0.48 c 0.176,0.074 0.367,0.133 0.574,0.176 0.207,0.043 0.412,0.064 0.615,0.064 0.332,0 0.582,-0.063 0.75,-0.188 0.168,-0.127 0.252,-0.302 0.252,-0.526 0,-0.148 -0.03,-0.27 -0.09,-0.364 -0.06,-0.094 -0.16,-0.183 -0.3,-0.263 -0.14,-0.08 -0.35,-0.17 -0.636,-0.272 -0.397,-0.143 -0.683,-0.312 -0.853,-0.507 -0.17,-0.195 -0.256,-0.45 -0.256,-0.765 0,-0.33 0.125,-0.592 0.373,-0.787 0.248,-0.195 0.576,-0.293 0.984,-0.293 0.426,0 0.817,0.078 1.175,0.234 l -0.155,0.434 c -0.354,-0.148 -0.697,-0.223 -1.03,-0.223 -0.265,0 -0.47,0.057 -0.62,0.17 -0.15,0.113 -0.222,0.27 -0.222,0.472 0,0.148 0.027,0.27 0.082,0.365 0.055,0.095 0.146,0.182 0.276,0.26 0.13,0.08 0.33,0.167 0.597,0.263 0.45,0.16 0.758,0.332 0.927,0.516 0.169,0.184 0.254,0.42 0.254,0.714 z m 5.128,1.14 -0.533,-1.362 -1.717,0 -0.527,1.362 -0.503,0 1.693,-4.3 0.42,0 1.684,4.3 -0.516,0 z m -0.688,-1.81 -0.498,-1.328 c -0.064,-0.168 -0.13,-0.374 -0.2,-0.618 -0.042,0.188 -0.103,0.394 -0.184,0.618 l -0.504,1.327 1.386,0 z m 3.214,1.869 c -0.21,0 -0.4,-0.04 -0.573,-0.115 -0.172,-0.077 -0.316,-0.196 -0.434,-0.356 l -0.035,0 c 0.024,0.188 0.036,0.365 0.036,0.533 l 0,1.32 -0.486,0 0,-4.65 0.396,0 0.067,0.438 0.023,0 c 0.125,-0.176 0.27,-0.303 0.437,-0.38 0.167,-0.077 0.356,-0.118 0.57,-0.118 0.427,0 0.755,0.146 0.986,0.437 0.231,0.291 0.347,0.7 0.347,1.225 0,0.527 -0.118,0.937 -0.354,1.23 -0.236,0.293 -0.56,0.436 -0.98,0.436 z m -0.07,-2.915 c -0.33,0 -0.566,0.09 -0.713,0.272 -0.147,0.182 -0.22,0.47 -0.225,0.867 l 0,0.108 c 0,0.45 0.075,0.774 0.226,0.968 0.15,0.195 0.393,0.292 0.725,0.292 0.277,0 0.494,-0.112 0.65,-0.337 0.156,-0.225 0.237,-0.534 0.237,-0.93 0,-0.4 -0.08,-0.707 -0.236,-0.92 -0.157,-0.214 -0.378,-0.32 -0.663,-0.32 z m 3.746,2.915 c -0.21,0 -0.4,-0.04 -0.573,-0.115 -0.173,-0.077 -0.317,-0.196 -0.435,-0.356 l -0.035,0 c 0.023,0.188 0.035,0.365 0.035,0.533 l 0,1.32 -0.486,0 0,-4.65 0.396,0 0.067,0.438 0.022,0 c 0.125,-0.176 0.27,-0.303 0.437,-0.38 0.167,-0.077 0.355,-0.118 0.57,-0.118 0.426,0 0.754,0.146 0.985,0.437 0.231,0.291 0.348,0.7 0.348,1.225 0,0.527 -0.118,0.937 -0.354,1.23 -0.236,0.293 -0.562,0.436 -0.98,0.436 z m -0.07,-2.915 c -0.328,0 -0.565,0.09 -0.712,0.272 -0.147,0.182 -0.222,0.47 -0.226,0.867 l 0,0.108 c 0,0.45 0.075,0.774 0.226,0.968 0.15,0.195 0.392,0.292 0.724,0.292 0.277,0 0.494,-0.112 0.65,-0.337 0.156,-0.225 0.237,-0.534 0.237,-0.93 0,-0.4 -0.08,-0.707 -0.237,-0.92 -0.157,-0.214 -0.378,-0.32 -0.663,-0.32 z"
       id="path72"
       inkscape:connector-curvature="0" />
  </g>
  <g
     id="g74"
     transform="translate(0,-32)"
     style="fill:#356282">
    <path
       d="m 116.557,141.193 -0.533,-1.362 -1.717,0 -0.527,1.363 -0.504,0 1.693,-4.3 0.418,0 1.685,4.3 -0.516,0 z m -0.69,-1.81 -0.497,-1.327 c -0.064,-0.168 -0.13,-0.374 -0.2,-0.618 -0.042,0.188 -0.103,0.394 -0.184,0.618 l -0.504,1.327 1.386,0 z"
       id="path76"
       inkscape:connector-curvature="0" />
    <path
       d="m 117.037,142.32 c -0.184,0 -0.328,-0.025 -0.434,-0.078 l 0,-0.425 c 0.14,0.04 0.283,0.06 0.434,0.06 0.193,0 0.34,-0.06 0.44,-0.177 0.1,-0.117 0.15,-0.286 0.15,-0.507 l 0,-4.283 0.5,0 0,4.242 c 0,0.37 -0.095,0.658 -0.282,0.863 -0.187,0.203 -0.456,0.306 -0.808,0.306 z m 4.919,-1.127 -0.533,-1.362 -1.717,0 -0.527,1.363 -0.505,0 1.693,-4.3 0.42,0 1.684,4.3 -0.516,0 z m -0.688,-1.81 -0.498,-1.327 c -0.064,-0.168 -0.13,-0.374 -0.2,-0.618 -0.042,0.188 -0.103,0.394 -0.184,0.618 l -0.504,1.327 1.386,0 z m 4.642,1.81 -0.564,0 -1.15,-1.884 -1.173,1.883 -0.527,0 1.424,-2.238 -1.327,-2.045 0.55,0 1.064,1.696 1.072,-1.696 0.53,0 -1.328,2.027 1.43,2.256 z"
       id="path78"
       inkscape:connector-curvature="0" />
  </g>
  <g
     id="g80"
     transform="translate(0,-32)"
     style="fill:#356282">
    <path
       d="m 105.26,150.986 1.456,0 0,2.083 c -0.227,0.07 -0.457,0.126 -0.69,0.163 -0.233,0.037 -0.507,0.056 -0.815,0.056 -0.647,0 -1.152,-0.193 -1.514,-0.58 -0.362,-0.387 -0.542,-0.926 -0.542,-1.62 0,-0.446 0.09,-0.836 0.268,-1.172 0.18,-0.334 0.437,-0.59 0.772,-0.768 0.336,-0.176 0.73,-0.265 1.18,-0.265 0.458,0 0.884,0.084 1.278,0.252 l -0.193,0.44 c -0.388,-0.165 -0.76,-0.247 -1.117,-0.247 -0.52,0 -0.93,0.155 -1.222,0.466 -0.292,0.311 -0.438,0.74 -0.438,1.292 0,0.578 0.14,1.017 0.423,1.315 0.283,0.298 0.697,0.448 1.244,0.448 0.296,0 0.586,-0.033 0.87,-0.102 l 0,-1.318 -0.96,0 0,-0.444 z m 3.767,2.304 c -0.475,0 -0.85,-0.146 -1.124,-0.435 -0.274,-0.289 -0.41,-0.69 -0.41,-1.204 0,-0.517 0.126,-0.928 0.38,-1.232 0.254,-0.304 0.6,-0.457 1.028,-0.457 0.403,0 0.722,0.134 0.956,0.397 0.234,0.266 0.352,0.614 0.352,1.048 l 0,0.308 -2.212,0 c 0.01,0.377 0.104,0.663 0.285,0.858 0.181,0.195 0.437,0.294 0.765,0.294 0.346,0 0.688,-0.072 1.025,-0.217 l 0,0.434 c -0.172,0.075 -0.335,0.13 -0.488,0.16 -0.153,0.033 -0.338,0.05 -0.555,0.05 z m -0.13,-2.922 c -0.26,0 -0.465,0.084 -0.618,0.252 -0.153,0.168 -0.244,0.4 -0.272,0.697 l 1.68,0 c 0,-0.307 -0.07,-0.54 -0.206,-0.704 -0.136,-0.164 -0.333,-0.245 -0.586,-0.245 z m 4.913,1.254 c 0,0.523 -0.133,0.933 -0.397,1.226 -0.264,0.295 -0.628,0.44 -1.093,0.44 -0.287,0 -0.542,-0.066 -0.765,-0.2 -0.223,-0.134 -0.395,-0.33 -0.516,-0.58 -0.121,-0.25 -0.183,-0.548 -0.183,-0.886 0,-0.523 0.13,-0.93 0.393,-1.224 0.262,-0.29 0.625,-0.438 1.09,-0.438 0.45,0 0.806,0.15 1.07,0.448 0.264,0.298 0.4,0.704 0.4,1.214 z m -2.448,0 c 0,0.41 0.082,0.723 0.246,0.938 0.164,0.215 0.405,0.322 0.724,0.322 0.319,0 0.56,-0.106 0.725,-0.32 0.165,-0.214 0.248,-0.527 0.248,-0.94 0,-0.407 -0.083,-0.717 -0.248,-0.93 -0.165,-0.21 -0.408,-0.317 -0.73,-0.317 -0.318,0 -0.56,0.104 -0.72,0.313 -0.16,0.209 -0.245,0.52 -0.245,0.934 z m 3.786,1.608 -0.486,0 0,-4.56 0.486,0 0,4.56 z m 3.802,-1.608 c 0,0.523 -0.132,0.933 -0.396,1.226 -0.264,0.295 -0.628,0.44 -1.093,0.44 -0.286,0 -0.54,-0.066 -0.764,-0.2 -0.224,-0.134 -0.395,-0.33 -0.516,-0.58 -0.121,-0.25 -0.18,-0.548 -0.18,-0.886 0,-0.523 0.13,-0.93 0.393,-1.224 0.262,-0.29 0.625,-0.438 1.09,-0.438 0.45,0 0.806,0.15 1.07,0.448 0.264,0.298 0.397,0.704 0.397,1.214 z m -2.446,0 c 0,0.41 0.082,0.723 0.246,0.938 0.164,0.215 0.405,0.322 0.724,0.322 0.319,0 0.56,-0.106 0.725,-0.32 0.164,-0.214 0.247,-0.527 0.247,-0.94 0,-0.407 -0.083,-0.717 -0.248,-0.93 -0.166,-0.21 -0.41,-0.317 -0.73,-0.317 -0.32,0 -0.56,0.104 -0.722,0.313 -0.162,0.209 -0.244,0.52 -0.244,0.934 z m 4.582,1.668 c -0.465,0 -0.825,-0.144 -1.08,-0.43 -0.255,-0.286 -0.382,-0.69 -0.382,-1.215 0,-0.537 0.13,-0.952 0.388,-1.245 0.258,-0.293 0.628,-0.44 1.106,-0.44 0.154,0 0.31,0.018 0.463,0.05 0.153,0.032 0.276,0.073 0.364,0.118 l -0.15,0.413 c -0.106,-0.042 -0.224,-0.077 -0.35,-0.106 -0.128,-0.027 -0.24,-0.042 -0.338,-0.042 -0.652,0 -0.98,0.416 -0.98,1.248 0,0.395 0.08,0.697 0.24,0.908 0.16,0.211 0.395,0.316 0.707,0.316 0.268,0 0.542,-0.058 0.823,-0.173 l 0,0.432 c -0.213,0.11 -0.484,0.167 -0.81,0.167 z m 3.548,-0.06 -0.097,-0.457 -0.023,0 c -0.16,0.2 -0.32,0.338 -0.48,0.408 -0.158,0.072 -0.356,0.108 -0.595,0.108 -0.32,0 -0.57,-0.082 -0.75,-0.246 -0.18,-0.164 -0.27,-0.397 -0.27,-0.7 0,-0.648 0.518,-0.988 1.555,-1.02 l 0.545,-0.018 0,-0.2 c 0,-0.25 -0.055,-0.437 -0.163,-0.557 -0.108,-0.12 -0.28,-0.18 -0.52,-0.18 -0.268,0 -0.57,0.08 -0.908,0.245 l -0.15,-0.372 c 0.158,-0.086 0.33,-0.153 0.52,-0.202 0.19,-0.049 0.378,-0.073 0.567,-0.073 0.383,0 0.666,0.085 0.85,0.255 0.184,0.17 0.278,0.442 0.278,0.817 l 0,2.19 -0.36,0 z m -1.1,-0.343 c 0.304,0 0.54,-0.083 0.714,-0.25 0.174,-0.167 0.26,-0.397 0.26,-0.696 l 0,-0.29 -0.486,0.022 c -0.387,0.014 -0.666,0.074 -0.837,0.18 -0.17,0.107 -0.256,0.272 -0.256,0.497 0,0.175 0.052,0.31 0.158,0.4 0.106,0.09 0.256,0.137 0.447,0.137 z m 3.499,0 c 0.086,0 0.17,-0.006 0.25,-0.02 0.08,-0.014 0.143,-0.025 0.19,-0.04 l 0,0.373 c -0.054,0.025 -0.132,0.046 -0.234,0.062 -0.102,0.016 -0.195,0.025 -0.277,0.025 -0.62,0 -0.932,-0.327 -0.932,-0.98 l 0,-1.91 -0.46,0 0,-0.235 0.46,-0.202 0.206,-0.686 0.28,0 0,0.744 0.933,0 0,0.378 -0.933,0 0,1.89 c 0,0.193 0.046,0.342 0.138,0.445 0.092,0.103 0.218,0.157 0.378,0.157 z m 1.04,-3.737 c 0,-0.112 0.027,-0.193 0.082,-0.246 0.055,-0.05 0.123,-0.077 0.205,-0.077 0.078,0 0.146,0.026 0.202,0.08 0.056,0.054 0.085,0.133 0.085,0.242 0,0.109 -0.028,0.19 -0.085,0.244 -0.057,0.054 -0.124,0.08 -0.202,0.08 -0.082,0 -0.15,-0.026 -0.205,-0.08 -0.055,-0.054 -0.082,-0.136 -0.082,-0.245 z m 0.528,4.08 -0.485,0 0,-3.21 0.486,0 0,3.21 z m 3.802,-1.608 c 0,0.523 -0.132,0.933 -0.396,1.226 -0.264,0.295 -0.628,0.44 -1.093,0.44 -0.287,0 -0.542,-0.066 -0.765,-0.2 -0.223,-0.134 -0.396,-0.33 -0.517,-0.58 -0.121,-0.25 -0.182,-0.548 -0.182,-0.886 0,-0.523 0.132,-0.93 0.394,-1.224 0.262,-0.29 0.625,-0.438 1.09,-0.438 0.45,0 0.806,0.15 1.07,0.448 0.264,0.298 0.4,0.704 0.4,1.214 z m -2.446,0 c 0,0.41 0.082,0.723 0.246,0.938 0.164,0.215 0.405,0.322 0.724,0.322 0.319,0 0.56,-0.106 0.725,-0.32 0.165,-0.214 0.248,-0.527 0.248,-0.94 0,-0.407 -0.083,-0.717 -0.248,-0.93 -0.165,-0.21 -0.408,-0.317 -0.73,-0.317 -0.318,0 -0.56,0.104 -0.72,0.313 -0.16,0.209 -0.245,0.52 -0.245,0.934 z m 5.496,1.608 0,-2.077 c 0,-0.262 -0.06,-0.457 -0.18,-0.586 -0.12,-0.129 -0.305,-0.193 -0.56,-0.193 -0.335,0 -0.58,0.09 -0.737,0.272 -0.157,0.182 -0.234,0.48 -0.234,0.9 l 0,1.684 -0.486,0 0,-3.21 0.396,0 0.08,0.438 0.022,0 c 0.1,-0.158 0.24,-0.28 0.42,-0.367 0.18,-0.087 0.38,-0.13 0.6,-0.13 0.387,0 0.678,0.094 0.873,0.28 0.195,0.187 0.293,0.484 0.293,0.895 l 0,2.095 -0.487,0 z"
       id="path82"
       inkscape:connector-curvature="0" />
  </g>
  <g
     id="g84"
     transform="translate(0,-32)"
     style="fill:#356282">
    <path
       d="m 107.566,165.27 -0.533,-1.363 -1.717,0 -0.527,1.362 -0.505,0 1.693,-4.302 0.42,0 1.684,4.3 -0.516,0 z m -0.688,-1.81 -0.498,-1.328 c -0.064,-0.168 -0.13,-0.374 -0.2,-0.618 -0.042,0.188 -0.103,0.394 -0.184,0.618 l -0.504,1.327 1.386,0 z m 3.214,1.868 c -0.21,0 -0.4,-0.04 -0.572,-0.115 -0.173,-0.077 -0.318,-0.196 -0.436,-0.356 l -0.035,0 c 0.022,0.188 0.034,0.365 0.034,0.533 l 0,1.32 -0.486,0 0,-4.65 0.396,0 0.067,0.438 0.024,0 c 0.125,-0.176 0.27,-0.303 0.437,-0.38 0.167,-0.077 0.357,-0.118 0.572,-0.118 0.426,0 0.755,0.146 0.986,0.437 0.231,0.291 0.347,0.7 0.347,1.225 0,0.527 -0.117,0.938 -0.353,1.23 -0.236,0.292 -0.562,0.436 -0.98,0.436 z m -0.07,-2.915 c -0.328,0 -0.565,0.09 -0.712,0.272 -0.147,0.182 -0.222,0.47 -0.226,0.867 l 0,0.108 c 0,0.45 0.075,0.774 0.226,0.968 0.15,0.195 0.392,0.292 0.724,0.292 0.277,0 0.495,-0.112 0.652,-0.337 0.157,-0.225 0.235,-0.534 0.235,-0.93 0,-0.4 -0.077,-0.707 -0.234,-0.92 -0.158,-0.214 -0.38,-0.32 -0.664,-0.32 z m 3.748,2.915 c -0.21,0 -0.4,-0.04 -0.573,-0.115 -0.173,-0.077 -0.318,-0.196 -0.436,-0.356 l -0.034,0 c 0.023,0.188 0.035,0.365 0.035,0.533 l 0,1.32 -0.485,0 0,-4.65 0.396,0 0.068,0.438 0.023,0 c 0.126,-0.176 0.272,-0.303 0.438,-0.38 0.166,-0.077 0.356,-0.118 0.57,-0.118 0.427,0 0.756,0.146 0.987,0.437 0.231,0.291 0.347,0.7 0.347,1.225 0,0.527 -0.117,0.938 -0.353,1.23 -0.236,0.292 -0.563,0.436 -0.98,0.436 z m -0.072,-2.915 c -0.328,0 -0.565,0.09 -0.712,0.272 -0.147,0.182 -0.222,0.47 -0.226,0.867 l 0,0.108 c 0,0.45 0.075,0.774 0.226,0.968 0.15,0.195 0.392,0.292 0.724,0.292 0.277,0 0.495,-0.112 0.652,-0.337 0.157,-0.225 0.235,-0.534 0.235,-0.93 0,-0.4 -0.078,-0.707 -0.235,-0.92 -0.157,-0.214 -0.38,-0.32 -0.664,-0.32 z m 5.719,-1.043 c -0.47,0 -0.842,0.157 -1.114,0.47 -0.272,0.314 -0.41,0.743 -0.41,1.288 0,0.56 0.133,0.994 0.396,1.3 0.263,0.306 0.636,0.458 1.122,0.458 0.3,0 0.64,-0.054 1.022,-0.16 l 0,0.436 c -0.297,0.11 -0.663,0.167 -1.1,0.167 -0.63,0 -1.116,-0.192 -1.46,-0.575 -0.344,-0.383 -0.514,-0.927 -0.514,-1.632 0,-0.44 0.083,-0.828 0.248,-1.16 0.165,-0.332 0.403,-0.588 0.715,-0.768 0.312,-0.18 0.678,-0.27 1.1,-0.27 0.45,0 0.842,0.082 1.178,0.246 l -0.21,0.43 c -0.325,-0.154 -0.65,-0.23 -0.973,-0.23 z m 4.649,2.29 c 0,0.524 -0.132,0.934 -0.396,1.227 -0.264,0.295 -0.628,0.44 -1.093,0.44 -0.287,0 -0.542,-0.066 -0.765,-0.2 -0.223,-0.134 -0.395,-0.33 -0.516,-0.58 -0.121,-0.25 -0.182,-0.548 -0.182,-0.886 0,-0.522 0.13,-0.93 0.393,-1.223 0.262,-0.29 0.625,-0.438 1.09,-0.438 0.45,0 0.807,0.148 1.07,0.447 0.263,0.299 0.4,0.704 0.4,1.214 z m -2.446,0 c 0,0.41 0.082,0.724 0.246,0.94 0.164,0.216 0.405,0.32 0.724,0.32 0.319,0 0.56,-0.105 0.726,-0.32 0.165,-0.213 0.247,-0.526 0.247,-0.938 0,-0.408 -0.082,-0.718 -0.247,-0.93 -0.165,-0.212 -0.41,-0.318 -0.73,-0.318 -0.32,0 -0.56,0.104 -0.722,0.313 -0.162,0.209 -0.244,0.52 -0.244,0.934 z m 5.496,1.61 0,-2.078 c 0,-0.262 -0.06,-0.457 -0.18,-0.586 -0.12,-0.129 -0.305,-0.193 -0.56,-0.193 -0.335,0 -0.58,0.09 -0.737,0.272 -0.157,0.182 -0.235,0.48 -0.235,0.9 l 0,1.684 -0.486,0 0,-3.212 0.395,0 0.08,0.44 0.022,0 c 0.1,-0.16 0.24,-0.28 0.42,-0.368 0.18,-0.088 0.38,-0.13 0.6,-0.13 0.387,0 0.678,0.093 0.873,0.278 0.195,0.188 0.293,0.485 0.293,0.896 l 0,2.095 -0.487,0 z m 2.934,-2.834 -0.818,0 0,2.833 -0.486,0 0,-2.834 -0.574,0 0,-0.22 0.574,-0.176 0,-0.18 c 0,-0.788 0.345,-1.183 1.034,-1.183 0.17,0 0.37,0.034 0.598,0.103 l -0.126,0.39 c -0.188,-0.06 -0.348,-0.09 -0.48,-0.09 -0.184,0 -0.32,0.06 -0.407,0.183 -0.087,0.123 -0.132,0.317 -0.132,0.587 l 0,0.208 0.817,0 0,0.378 z m 0.544,-1.248 c 0,-0.11 0.027,-0.192 0.082,-0.245 0.055,-0.05 0.123,-0.077 0.205,-0.077 0.08,0 0.147,0.026 0.203,0.08 0.056,0.054 0.085,0.133 0.085,0.242 0,0.109 -0.028,0.19 -0.085,0.245 -0.057,0.055 -0.124,0.08 -0.202,0.08 -0.08,0 -0.15,-0.026 -0.204,-0.08 -0.054,-0.054 -0.082,-0.135 -0.082,-0.245 z m 0.527,4.08 -0.485,0 0,-3.21 0.486,0 0,3.21 z m 3.659,-3.21 0,0.308 -0.595,0.07 c 0.055,0.068 0.104,0.158 0.146,0.27 0.042,0.112 0.065,0.233 0.065,0.372 0,0.314 -0.107,0.565 -0.322,0.753 -0.215,0.188 -0.51,0.282 -0.885,0.282 -0.096,0 -0.186,-0.008 -0.27,-0.023 -0.207,0.108 -0.31,0.246 -0.31,0.412 0,0.088 0.035,0.153 0.107,0.195 0.072,0.042 0.196,0.062 0.372,0.062 l 0.568,0 c 0.348,0 0.615,0.072 0.802,0.22 0.187,0.148 0.28,0.358 0.28,0.638 0,0.355 -0.144,0.626 -0.43,0.813 -0.284,0.187 -0.7,0.28 -1.247,0.28 -0.42,0 -0.743,-0.078 -0.97,-0.234 -0.227,-0.156 -0.343,-0.377 -0.343,-0.662 0,-0.195 0.062,-0.364 0.188,-0.507 0.126,-0.143 0.3,-0.24 0.527,-0.29 -0.082,-0.037 -0.15,-0.095 -0.206,-0.173 -0.056,-0.078 -0.084,-0.17 -0.084,-0.272 0,-0.117 0.03,-0.22 0.094,-0.308 0.064,-0.088 0.16,-0.173 0.296,-0.255 -0.166,-0.07 -0.3,-0.186 -0.405,-0.35 -0.105,-0.164 -0.157,-0.352 -0.157,-0.562 0,-0.352 0.105,-0.622 0.316,-0.813 0.21,-0.19 0.51,-0.285 0.896,-0.285 0.168,0 0.32,0.02 0.454,0.06 l 1.114,0 z m -2.56,3.75 c 0,0.174 0.073,0.306 0.22,0.396 0.147,0.09 0.356,0.135 0.63,0.135 0.408,0 0.71,-0.063 0.907,-0.184 0.196,-0.123 0.294,-0.288 0.294,-0.497 0,-0.175 -0.053,-0.295 -0.16,-0.363 -0.107,-0.066 -0.31,-0.1 -0.606,-0.1 l -0.583,0 c -0.22,0 -0.392,0.052 -0.515,0.157 -0.123,0.105 -0.185,0.257 -0.185,0.454 z m 0.263,-2.72 c 0,0.224 0.063,0.394 0.19,0.51 0.127,0.116 0.304,0.172 0.53,0.172 0.475,0 0.712,-0.23 0.712,-0.69 0,-0.483 -0.24,-0.725 -0.72,-0.725 -0.23,0 -0.405,0.062 -0.528,0.185 -0.123,0.123 -0.184,0.304 -0.184,0.547 z"
       id="path86"
       inkscape:connector-curvature="0" />
  </g>
  <g
     id="g88"
     transform="translate(0,-32)"
     style="fill:#356282">
    <path
       d="m 103.393,176.95 -0.486,0 0,-4.56 0.486,0 0,4.56 z m 3.802,-1.61 c 0,0.524 -0.132,0.934 -0.396,1.227 -0.265,0.295 -0.63,0.44 -1.094,0.44 -0.287,0 -0.542,-0.066 -0.765,-0.2 -0.223,-0.134 -0.394,-0.33 -0.515,-0.58 -0.121,-0.25 -0.182,-0.548 -0.182,-0.886 0,-0.522 0.13,-0.93 0.393,-1.223 0.262,-0.29 0.625,-0.438 1.09,-0.438 0.45,0 0.806,0.148 1.07,0.447 0.264,0.299 0.4,0.704 0.4,1.214 z m -2.446,0 c 0,0.41 0.08,0.724 0.245,0.94 0.165,0.216 0.405,0.32 0.724,0.32 0.319,0 0.56,-0.105 0.724,-0.32 0.165,-0.213 0.248,-0.526 0.248,-0.938 0,-0.408 -0.083,-0.718 -0.248,-0.93 -0.165,-0.212 -0.408,-0.318 -0.73,-0.318 -0.318,0 -0.56,0.104 -0.72,0.313 -0.16,0.209 -0.245,0.52 -0.245,0.934 z m 4.581,1.668 c -0.464,0 -0.824,-0.143 -1.08,-0.43 -0.254,-0.285 -0.38,-0.69 -0.38,-1.214 0,-0.537 0.128,-0.952 0.387,-1.245 0.259,-0.293 0.628,-0.44 1.106,-0.44 0.154,0 0.31,0.017 0.463,0.05 0.153,0.033 0.275,0.072 0.363,0.117 l -0.15,0.413 c -0.107,-0.043 -0.225,-0.078 -0.352,-0.107 -0.127,-0.027 -0.24,-0.042 -0.337,-0.042 -0.65,0 -0.978,0.417 -0.978,1.25 0,0.394 0.08,0.696 0.238,0.907 0.158,0.211 0.396,0.316 0.708,0.316 0.268,0 0.542,-0.058 0.823,-0.173 l 0,0.43 c -0.212,0.112 -0.483,0.168 -0.81,0.168 z m 3.55,-0.058 -0.098,-0.458 -0.023,0 c -0.16,0.2 -0.32,0.338 -0.48,0.408 -0.16,0.07 -0.357,0.107 -0.596,0.107 -0.318,0 -0.568,-0.082 -0.75,-0.246 -0.182,-0.164 -0.27,-0.396 -0.27,-0.7 0,-0.647 0.52,-0.987 1.556,-1.02 l 0.545,-0.017 0,-0.2 c 0,-0.25 -0.055,-0.437 -0.163,-0.557 -0.108,-0.12 -0.28,-0.18 -0.52,-0.18 -0.268,0 -0.57,0.08 -0.908,0.245 l -0.15,-0.37 c 0.16,-0.087 0.332,-0.154 0.52,-0.203 0.188,-0.049 0.38,-0.073 0.568,-0.073 0.383,0 0.666,0.085 0.85,0.255 0.184,0.17 0.278,0.44 0.278,0.816 l 0,2.19 -0.36,0 z m -1.1,-0.344 c 0.303,0 0.54,-0.083 0.713,-0.25 0.173,-0.167 0.26,-0.397 0.26,-0.696 l 0,-0.29 -0.486,0.02 c -0.387,0.015 -0.666,0.075 -0.837,0.18 -0.17,0.108 -0.256,0.273 -0.256,0.498 0,0.176 0.053,0.31 0.16,0.4 0.107,0.09 0.255,0.138 0.446,0.138 z m 2.948,0.344 -0.486,0 0,-4.56 0.486,0 0,4.56 z m 3.522,-1.14 c 0,0.376 -0.138,0.67 -0.41,0.88 -0.272,0.21 -0.646,0.317 -1.114,0.317 -0.508,0 -0.898,-0.065 -1.172,-0.196 l 0,-0.48 c 0.176,0.075 0.367,0.134 0.574,0.177 0.207,0.043 0.412,0.064 0.615,0.064 0.332,0 0.582,-0.062 0.75,-0.187 0.168,-0.127 0.252,-0.302 0.252,-0.526 0,-0.148 -0.03,-0.27 -0.09,-0.364 -0.06,-0.094 -0.16,-0.183 -0.3,-0.263 -0.14,-0.08 -0.35,-0.17 -0.636,-0.272 -0.4,-0.143 -0.685,-0.312 -0.855,-0.507 -0.17,-0.195 -0.256,-0.45 -0.256,-0.764 0,-0.33 0.123,-0.593 0.37,-0.788 0.247,-0.195 0.577,-0.293 0.985,-0.293 0.426,0 0.817,0.078 1.175,0.234 l -0.155,0.433 c -0.354,-0.148 -0.697,-0.223 -1.03,-0.223 -0.265,0 -0.47,0.057 -0.62,0.17 -0.15,0.113 -0.222,0.27 -0.222,0.472 0,0.148 0.027,0.27 0.082,0.365 0.055,0.095 0.146,0.182 0.276,0.26 0.13,0.08 0.33,0.167 0.598,0.263 0.45,0.16 0.758,0.332 0.927,0.516 0.169,0.184 0.254,0.42 0.254,0.713 z m 1.84,0.796 c 0.085,0 0.168,-0.006 0.248,-0.02 0.08,-0.014 0.144,-0.025 0.19,-0.04 l 0,0.373 c -0.053,0.024 -0.13,0.045 -0.233,0.06 -0.103,0.015 -0.194,0.026 -0.276,0.026 -0.622,0 -0.933,-0.327 -0.933,-0.98 l 0,-1.91 -0.46,0 0,-0.235 0.46,-0.2 0.205,-0.687 0.28,0 0,0.744 0.933,0 0,0.378 -0.932,0 0,1.89 c 0,0.193 0.046,0.342 0.138,0.445 0.092,0.103 0.22,0.156 0.38,0.156 z m 3.85,-1.266 c 0,0.524 -0.13,0.934 -0.395,1.227 -0.264,0.295 -0.628,0.44 -1.093,0.44 -0.287,0 -0.542,-0.066 -0.765,-0.2 -0.223,-0.134 -0.395,-0.33 -0.516,-0.58 -0.121,-0.25 -0.18,-0.548 -0.18,-0.886 0,-0.522 0.13,-0.93 0.392,-1.223 0.262,-0.29 0.625,-0.438 1.09,-0.438 0.45,0 0.806,0.148 1.07,0.447 0.264,0.299 0.4,0.704 0.4,1.214 z m -2.445,0 c 0,0.41 0.082,0.724 0.246,0.94 0.164,0.216 0.406,0.32 0.725,0.32 0.319,0 0.56,-0.105 0.725,-0.32 0.165,-0.213 0.248,-0.526 0.248,-0.938 0,-0.408 -0.083,-0.718 -0.248,-0.93 -0.165,-0.212 -0.408,-0.318 -0.73,-0.318 -0.318,0 -0.56,0.104 -0.72,0.313 -0.16,0.209 -0.245,0.52 -0.245,0.934 z m 4.765,-1.66 c 0.142,0 0.27,0.01 0.383,0.034 l -0.067,0.45 c -0.133,-0.028 -0.25,-0.043 -0.352,-0.043 -0.26,0 -0.482,0.106 -0.667,0.317 -0.185,0.211 -0.276,0.474 -0.276,0.788 l 0,1.723 -0.485,0 0,-3.21 0.4,0 0.057,0.594 0.023,0 c 0.12,-0.21 0.263,-0.37 0.43,-0.483 0.167,-0.113 0.353,-0.17 0.554,-0.17 z m 2.958,3.27 -0.097,-0.458 -0.022,0 c -0.16,0.2 -0.32,0.338 -0.48,0.408 -0.158,0.07 -0.356,0.107 -0.595,0.107 -0.318,0 -0.568,-0.082 -0.75,-0.246 -0.182,-0.164 -0.27,-0.396 -0.27,-0.7 0,-0.647 0.52,-0.987 1.556,-1.02 l 0.544,-0.017 0,-0.2 c 0,-0.25 -0.055,-0.437 -0.163,-0.557 -0.107,-0.12 -0.28,-0.18 -0.52,-0.18 -0.267,0 -0.57,0.08 -0.907,0.245 l -0.15,-0.37 c 0.16,-0.087 0.332,-0.154 0.52,-0.203 0.188,-0.049 0.38,-0.073 0.568,-0.073 0.384,0 0.667,0.085 0.852,0.255 0.185,0.17 0.277,0.44 0.277,0.816 l 0,2.19 -0.362,0 z m -1.1,-0.344 c 0.304,0 0.54,-0.083 0.714,-0.25 0.174,-0.167 0.26,-0.397 0.26,-0.696 l 0,-0.29 -0.486,0.02 c -0.387,0.015 -0.666,0.075 -0.837,0.18 -0.172,0.108 -0.257,0.273 -0.257,0.498 0,0.176 0.053,0.31 0.16,0.4 0.107,0.09 0.255,0.138 0.446,0.138 z m 5.09,-2.868 0,0.308 -0.595,0.07 c 0.055,0.068 0.104,0.158 0.146,0.27 0.042,0.112 0.063,0.233 0.063,0.372 0,0.314 -0.107,0.565 -0.322,0.753 -0.215,0.188 -0.51,0.282 -0.884,0.282 -0.096,0 -0.186,-0.008 -0.27,-0.023 -0.207,0.108 -0.31,0.246 -0.31,0.412 0,0.088 0.035,0.153 0.107,0.195 0.072,0.042 0.196,0.062 0.372,0.062 l 0.568,0 c 0.348,0 0.614,0.072 0.8,0.22 0.186,0.148 0.28,0.358 0.28,0.638 0,0.355 -0.142,0.626 -0.427,0.813 -0.285,0.187 -0.7,0.28 -1.248,0.28 -0.42,0 -0.744,-0.078 -0.972,-0.234 -0.228,-0.156 -0.34,-0.377 -0.34,-0.662 0,-0.195 0.06,-0.364 0.187,-0.507 0.127,-0.143 0.3,-0.24 0.527,-0.29 -0.082,-0.037 -0.15,-0.095 -0.207,-0.173 -0.057,-0.078 -0.083,-0.17 -0.083,-0.272 0,-0.117 0.03,-0.22 0.094,-0.308 0.064,-0.088 0.16,-0.173 0.296,-0.255 -0.166,-0.07 -0.302,-0.186 -0.406,-0.35 -0.104,-0.164 -0.156,-0.352 -0.156,-0.562 0,-0.352 0.105,-0.622 0.316,-0.813 0.21,-0.19 0.51,-0.285 0.896,-0.285 0.168,0 0.32,0.02 0.454,0.06 l 1.114,0 z m -2.56,3.75 c 0,0.174 0.073,0.306 0.22,0.396 0.147,0.09 0.356,0.135 0.63,0.135 0.408,0 0.71,-0.063 0.906,-0.184 0.196,-0.123 0.295,-0.288 0.295,-0.497 0,-0.175 -0.055,-0.295 -0.162,-0.363 -0.107,-0.066 -0.31,-0.1 -0.606,-0.1 l -0.583,0 c -0.222,0 -0.394,0.052 -0.517,0.157 -0.123,0.105 -0.185,0.257 -0.185,0.454 z m 0.263,-2.722 c 0,0.225 0.064,0.395 0.19,0.51 0.126,0.115 0.305,0.173 0.53,0.173 0.476,0 0.713,-0.23 0.713,-0.692 0,-0.482 -0.24,-0.724 -0.72,-0.724 -0.23,0 -0.405,0.062 -0.528,0.185 -0.123,0.123 -0.184,0.304 -0.184,0.546 z m 4.313,2.242 c -0.475,0 -0.85,-0.145 -1.124,-0.434 -0.274,-0.289 -0.41,-0.69 -0.41,-1.204 0,-0.518 0.126,-0.93 0.38,-1.233 0.254,-0.303 0.6,-0.457 1.028,-0.457 0.402,0 0.72,0.133 0.955,0.396 0.234,0.266 0.352,0.614 0.352,1.048 l 0,0.308 -2.212,0 c 0.01,0.377 0.104,0.663 0.285,0.858 0.181,0.195 0.436,0.293 0.764,0.293 0.346,0 0.688,-0.072 1.025,-0.217 l 0,0.434 c -0.172,0.074 -0.335,0.128 -0.488,0.16 -0.155,0.032 -0.34,0.048 -0.556,0.048 z m -0.132,-2.92 c -0.258,0 -0.464,0.083 -0.617,0.25 -0.153,0.167 -0.243,0.4 -0.27,0.698 l 1.678,0 c 0,-0.307 -0.068,-0.54 -0.205,-0.704 -0.137,-0.164 -0.332,-0.245 -0.586,-0.245 z"
       id="path90"
       inkscape:connector-curvature="0" />
  </g>
  <g
     id="g94"
     transform="translate(0,-22)">
    <path
       stroke-miterlimit="10"
       d="m 59.454,71.882 29.698,0"
       id="path96"
       inkscape:connector-curvature="0"
       style="fill:none;stroke:#4278a7;stroke-width:0.5;stroke-miterlimit:10" />
    <path
       d="m 88.787,73.128 2.16,-1.246 -2.16,-1.247"
       id="path98"
       inkscape:connector-curvature="0"
       style="fill:#4278a7" />
  </g>
  <g
     id="g100"
     transform="translate(0,-22)">
    <path
       stroke-miterlimit="10"
       d="m 90.946,76.882 -29.698,0"
       id="path102"
       inkscape:connector-curvature="0"
       style="fill:none;stroke:#4278a7;stroke-width:0.5;stroke-miterlimit:10" />
    <path
       d="m 61.612,75.635 -2.158,1.247 2.158,1.246"
       id="path104"
       inkscape:connector-curvature="0"
       style="fill:#4278a7" />
  </g>
  <g
     id="g106"
     transform="translate(0,-22)">
    <path
       stroke-miterlimit="10"
       d="m 147.454,71.882 29.698,0"
       id="path108"
       inkscape:connector-curvature="0"
       style="fill:none;stroke:#4278a7;stroke-width:0.5;stroke-miterlimit:10" />
    <path
       d="m 176.787,73.128 2.16,-1.246 -2.16,-1.247"
       id="path110"
       inkscape:connector-curvature="0"
       style="fill:#4278a7" />
  </g>
  <g
     id="g112"
     transform="translate(0,-22)">
    <path
       stroke-miterlimit="10"
       d="m 178.946,76.882 -29.698,0"
       id="path114"
       inkscape:connector-curvature="0"
       style="fill:none;stroke:#4278a7;stroke-width:0.5;stroke-miterlimit:10" />
    <path
       d="m 149.612,75.635 -2.158,1.247 2.158,1.246"
       id="path116"
       inkscape:connector-curvature="0"
       style="fill:#4278a7" />
  </g>
  <path
     d="m 208.82,10.82 c -4.9,0 -9.078,3.347 -10.227,7.983 -5.7,0.128 -10.298,4.805 -10.298,10.536 0,5.81 4.728,10.538 10.54,10.538 l 9.238,0 1.482,0.004 0,-29.025 c -0.244,-0.017 -0.488,-0.035 -0.735,-0.035 z"
     id="path118"
     inkscape:connector-curvature="0"
     style="fill:#83bbe6" />
  <path
     d="m 210.03,10.82 c 4.9,0 9.078,3.347 10.227,7.983 5.7,0.128 10.298,4.805 10.298,10.536 0,5.81 -4.728,10.538 -10.54,10.538 l -9.238,0 -1.482,0.004 0,-29.025 c 0.244,-0.017 0.488,-0.035 0.735,-0.035 z"
     id="path120"
     inkscape:connector-curvature="0"
     style="fill:#67a9dc" />
  <g
     id="g122"
     transform="translate(0,-22)">
    <path
       d="m 14.46,49.206 32.91,0 0,33.837 -32.91,0 z"
       id="path124"
       inkscape:connector-curvature="0"
       style="fill:#ffffff" />
    <path
       d="m 38.093,53.167 -16.587,0 c -1.975,0 -3.606,1.476 -3.884,3.377 l 0,20.6 c 0.278,1.9 1.91,3.376 3.884,3.376 l 16.587,0 c 1.975,0 3.606,-1.476 3.884,-3.377 l 0,-20.6 c -0.278,-1.9 -1.91,-3.376 -3.884,-3.376 z"
       id="path126"
       inkscape:connector-curvature="0"
       style="fill:none" />
    <path
       d="m 41.977,35.766 c 0,-2.168 -1.774,-3.942 -3.942,-3.942 l -16.472,0 c -2.168,0 -3.942,1.774 -3.942,3.942 l 0,9.384 24.357,0 0,-9.384 z m -24.355,52.724 0,9.43 c 0,2.168 1.774,3.942 3.942,3.942 l 16.472,0 c 2.168,0 3.942,-1.774 3.942,-3.942 l 0,-9.43 c 0.1,-0.01 0.193,-0.044 0.292,-0.06 l -24.927,0 c 0.095,0.015 0.183,0.05 0.28,0.06 z"
       id="path128"
       inkscape:connector-curvature="0"
       style="fill:#4278a7" />
    <path
       d="m 38.093,80.52 c 1.975,0 3.606,-1.476 3.884,-3.377 l 0,-20.6 c -0.278,-1.9 -1.91,-3.376 -3.884,-3.376 l -8.287,0 0,27.353 8.287,0 z"
       id="path130"
       inkscape:connector-curvature="0"
       style="fill:none" />
    <path
       d="m 51.154,62.738 0,-7.9 -0.83,0 c -0.02,-5.028 -3.672,-9.113 -8.347,-9.642 l 0,-0.046 -12.17,0 0,8.016 8.286,0 c 1.975,0 3.606,1.476 3.884,3.377 l 0,20.6 c -0.278,1.9 -1.91,3.376 -3.884,3.376 l -8.287,0 0,7.91 12.464,0 c 4.063,-0.598 7.283,-3.877 7.92,-8.1 l 0.963,0 0,-7.9 -0.825,0 0,-0.896 0.825,0 0,-7.9 -0.825,0 0,-0.897 0.826,0 z"
       id="path132"
       inkscape:connector-curvature="0"
       style="fill:#67a9dc" />
    <path
       d="m 21.506,80.52 c -1.975,0 -3.606,-1.476 -3.884,-3.377 l 0,-20.6 c 0.278,-1.9 1.91,-3.376 3.884,-3.376 l 8.3,0 0,-8.017 -12.184,0 0,0.046 c -4.675,0.53 -8.327,4.614 -8.348,9.64 l -1.22,0 0,7.902 1.216,0 0,16.07 c 0,4.942 3.522,8.96 8.073,9.623 l 12.463,0 0,-7.91 -8.3,0 z"
       id="path134"
       inkscape:connector-curvature="0"
       style="fill:#83bbe6" />
    <g
       stroke-miterlimit="10"
       id="g136"
       style="fill:none;stroke:#e6e326;stroke-linecap:round;stroke-linejoin:round;stroke-miterlimit:10">
      <path
         d="m 29.545,57.95 0,10.098 m 0,0 -4.252,4.252"
         id="path138"
         inkscape:connector-curvature="0" />
    </g>
  </g>
  <circle
     cx="209.295"
     cy="26.959"
     r="7.4330001"
     id="circle140"
     style="fill:#ffffff" />
  <path
     d="m 200.16,50.988 -6.118,0 c -0.523,-0.943 -1.53,-1.582 -2.68,-1.582 -1.69,0 -3.066,1.375 -3.066,3.065 0,1.69 1.375,3.066 3.065,3.066 1.153,0 2.16,-0.64 2.682,-1.582 l 7.602,0 c 0.82,0 1.483,-0.664 1.483,-1.483 l 0,-4.548 -2.967,0 0,3.066 z"
     id="path142"
     inkscape:connector-curvature="0"
     style="fill:#83bbe6" />
  <path
     d="m 227.75,49.406 c -1.21,0 -2.258,0.704 -2.756,1.724 l -6.045,0 0,-3.207 -2.967,0 0,4.69 c 0,0.82 0.664,1.484 1.483,1.484 l 7.686,0 c 0.543,0.864 1.504,1.44 2.598,1.44 1.69,0 3.065,-1.374 3.065,-3.064 0,-1.69 -1.375,-3.067 -3.066,-3.067 z"
     id="path144"
     inkscape:connector-curvature="0"
     style="fill:#4278a7" />
  <g
     id="g146"
     transform="translate(0,-22)">
    <path
       d="m 209.295,46.476 c -1.37,0 -2.482,1.114 -2.482,2.482 0,1.37 1.113,2.482 2.482,2.482 1.368,0 2.482,-1.113 2.482,-2.482 0,-1.369 -1.113,-2.482 -2.482,-2.482 z m 0,-0.729 c -0.268,0 -0.484,-0.217 -0.484,-0.484 l 0,-0.775 c 0,-0.268 0.218,-0.484 0.485,-0.484 0.268,0 0.484,0.217 0.484,0.484 l 0,0.775 c 0,0.267 -0.218,0.484 -0.485,0.484 z m 0,6.423 c -0.268,0 -0.484,0.217 -0.484,0.484 l 0,0.775 c 0,0.267 0.218,0.484 0.485,0.484 0.268,0 0.484,-0.217 0.484,-0.485 l 0,-0.776 c 0,-0.267 -0.218,-0.484 -0.485,-0.484 z m 2.271,-5.483 c -0.19,-0.19 -0.19,-0.496 0,-0.685 l 0.548,-0.548 c 0.19,-0.19 0.496,-0.19 0.685,0 0.188,0.19 0.188,0.496 0,0.685 l -0.55,0.547 c -0.188,0.19 -0.495,0.19 -0.684,0 z m -4.542,4.543 c -0.19,-0.19 -0.496,-0.19 -0.685,0 l -0.55,0.548 c -0.188,0.19 -0.188,0.496 0,0.685 0.19,0.19 0.497,0.19 0.686,0 l 0.548,-0.548 c 0.19,-0.19 0.19,-0.496 0,-0.685 z m 5.483,-2.27 c 0,-0.27 0.217,-0.485 0.484,-0.485 l 0.776,0 c 0.268,0 0.484,0.217 0.484,0.484 0,0.267 -0.217,0.483 -0.484,0.483 l -0.775,0 c -0.266,0 -0.483,-0.217 -0.483,-0.484 z m -6.424,0 c 0,-0.27 -0.217,-0.485 -0.484,-0.485 l -0.776,0 c -0.268,0 -0.484,0.217 -0.484,0.484 0,0.267 0.217,0.483 0.484,0.483 l 0.775,0 c 0.266,0 0.483,-0.217 0.483,-0.484 z m 5.483,2.27 c 0.19,-0.19 0.496,-0.19 0.685,0 l 0.55,0.548 c 0.188,0.19 0.188,0.496 0,0.685 -0.19,0.19 -0.497,0.19 -0.686,0 l -0.548,-0.548 c -0.19,-0.19 -0.19,-0.496 0,-0.685 z m -4.542,-4.543 c 0.19,-0.19 0.19,-0.496 0,-0.685 l -0.548,-0.548 c -0.19,-0.19 -0.496,-0.19 -0.685,0 -0.188,0.19 -0.188,0.496 0,0.685 l 0.55,0.547 c 0.188,0.19 0.495,0.19 0.684,0 z"
       id="path148"
       inkscape:connector-curvature="0"
       style="fill:#e6e326" />
  </g>
  <path
     d="m 207.812,38.632 0,35.138 c -0.943,0.524 -1.582,1.53 -1.582,2.682 0,1.69 1.375,3.065 3.065,3.065 l 0,-40.885 -1.483,0 z m 4.548,37.821 c 0,-1.152 -0.64,-2.158 -1.58,-2.68 l 0,-35.143 -1.484,0 0,40.886 c 1.69,0 3.065,-1.375 3.065,-3.065 z"
     id="path150"
     inkscape:connector-curvature="0"
     style="fill:#67a9dc" />
</svg>
